999
dxfrw 0.6.3
  0
SECTION
  2
HEADER
  9
$ACADVER
  1
AC1021
  9
$DWGCODEPAGE
  3
ANSI_1252
  9
$INSBASE
 10
0
 20
0
 30
0
  9
$EXTMIN
 10
-10.7694444444446
 20
904.4169000000001
 30
0
  9
$EXTMAX
 10
160.978
 20
973.2975
 30
0
  9
$LIMMIN
 10
0
 20
0
  9
$LIMMAX
 10
420
 20
297
  9
$ORTHOMODE
 70
    0
  9
$REGENMODE
 70
    1
  9
$FILLMODE
 70
    1
  9
$QTEXTMODE
 70
    0
  9
$MIRRTEXT
 70
    1
  9
$LTSCALE
 40
1
  9
$ATTMODE
 70
    1
  9
$TEXTSIZE
 40
2.5
  9
$TRACEWID
 40
1
  9
$TEXTSTYLE
  7
OpenSans
  9
$CLAYER
  8
0
  9
$CELTYPE
  6
ByLayer
  9
$CECOLOR
 62
  256
  9
$CELTSCALE
 40
1
  9
$DISPSILH
 70
    0
  9
$DIMSCALE
 40
1
  9
$DIMASZ
 40
0.175
  9
$DIMEXO
 40
0.125
  9
$DIMDLI
 40
3.75
  9
$DIMRND
 40
0
  9
$DIMDLE
 40
0
  9
$DIMEXE
 40
0.375
  9
$DIMTP
 40
0
  9
$DIMTM
 40
0
  9
$DIMTXT
 40
0.25
  9
$DIMCEN
 40
2.5
  9
$DIMTSZ
 40
0
  9
$DIMTOL
 70
    0
  9
$DIMLIM
 70
    0
  9
$DIMTIH
 70
    0
  9
$DIMTOH
 70
    0
  9
$DIMSE1
 70
    0
  9
$DIMSE2
 70
    0
  9
$DIMTAD
 70
    1
  9
$DIMZIN
 70
   12
  9
$DIMBLK
  1
ARCHTICK
  9
$DIMASO
 70
    1
  9
$DIMSHO
 70
    1
  9
$DIMPOST
  1

  9
$DIMAPOST
  1

  9
$DIMALT
 70
    0
  9
$DIMALTD
 70
    3
  9
$DIMALTF
 40
0.03937007874
  9
$DIMLFAC
 40
100
  9
$DIMTOFL
 70
    1
  9
$DIMTVP
 40
0
  9
$DIMTIX
 70
    0
  9
$DIMSOXD
 70
    0
  9
$DIMSAH
 70
    0
  9
$DIMBLK1
  1

  9
$DIMBLK2
  1

  9
$DIMSTYLE
  2
EZDXF
  9
$DIMCLRD
 70
    0
  9
$DIMCLRE
 70
    0
  9
$DIMCLRT
 70
    0
  9
$DIMTFAC
 40
0.5
  9
$DIMGAP
 40
0.1
  9
$DIMJUST
 70
    0
  9
$DIMSD1
 70
    0
  9
$DIMSD2
 70
    0
  9
$DIMTOLJ
 70
    0
  9
$DIMTZIN
 70
    8
  9
$DIMALTZ
 70
    0
  9
$DIMALTTZ
 70
    0
  9
$DIMUPT
 70
    1
  9
$DIMDEC
 70
    2
  9
$DIMTDEC
 70
    2
  9
$DIMALTU
 70
    2
  9
$DIMALTTD
 70
    3
  9
$DIMTXSTY
  7
OpenSansCondensed-Light
  9
$DIMAUNIT
 70
    0
  9
$DIMADEC
 70
    2
  9
$DIMALTRND
 40
0
  9
$DIMAZIN
 70
    3
  9
$DIMDSEP
 70
   46
  9
$DIMATFIT
 70
    3
  9
$DIMFRAC
 70
    0
  9
$DIMLDRBLK
  1

  9
$DIMLUNIT
 70
    2
  9
$DIMLWD
 70
   -2
  9
$DIMLWE
 70
   -2
  9
$DIMTMOVE
 70
    2
  9
$DIMFXL
 40
1
  9
$DIMFXLON
 70
    0
  9
$DIMJOGANG
 40
0.785398163397
  9
$DIMTFILL
 70
    0
  9
$DIMTFILLCLR
 70
    0
  9
$DIMARCSYM
 70
    0
  9
$DIMLTYPE
  6

  9
$DIMLTEX1
  6

  9
$DIMLTEX2
  6

  9
$LUNITS
 70
    2
  9
$LUPREC
 70
    4
  9
$SKETCHINC
 40
1
  9
$FILLETRAD
 40
10
  9
$AUNITS
 70
    0
  9
$AUPREC
 70
    2
  9
$MENU
  1
.
  9
$ELEVATION
 40
0
  9
$PELEVATION
 40
0
  9
$THICKNESS
 40
0
  9
$LIMCHECK
 70
    0
  9
$CHAMFERA
 40
0
  9
$CHAMFERB
 40
0
  9
$CHAMFERC
 40
0
  9
$CHAMFERD
 40
0
  9
$SKPOLY
 70
    0
  9
$USRTIMER
 70
    1
  9
$ANGBASE
 50
0
  9
$ANGDIR
 70
    0
  9
$PDMODE
 70
    0
  9
$PDSIZE
 40
0
  9
$PLINEWID
 40
0
  9
$SPLFRAME
 70
    0
  9
$SPLINETYPE
 70
    6
  9
$SPLINESEGS
 70
    8
  9
$HANDSEED
  5
20000
  9
$SURFTAB1
 70
    6
  9
$SURFTAB2
 70
    6
  9
$SURFTYPE
 70
    6
  9
$SURFU
 70
    6
  9
$SURFV
 70
    6
  9
$UCSBASE
  2

  9
$UCSNAME
  2

  9
$UCSORG
 10
0
 20
0
 30
0
  9
$UCSXDIR
 10
1
 20
0
 30
0
  9
$UCSYDIR
 10
0
 20
1
 30
0
  9
$UCSORTHOREF
  2

  9
$UCSORTHOVIEW
 70
    0
  9
$UCSORGTOP
 10
0
 20
0
 30
0
  9
$UCSORGBOTTOM
 10
0
 20
0
 30
0
  9
$UCSORGLEFT
 10
0
 20
0
 30
0
  9
$UCSORGRIGHT
 10
0
 20
0
 30
0
  9
$UCSORGFRONT
 10
0
 20
0
 30
0
  9
$UCSORGBACK
 10
0
 20
0
 30
0
  9
$PUCSBASE
  2

  9
$PUCSNAME
  2

  9
$PUCSORG
 10
0
 20
0
 30
0
  9
$PUCSXDIR
 10
1
 20
0
 30
0
  9
$PUCSYDIR
 10
0
 20
1
 30
0
  9
$PUCSORTHOREF
  2

  9
$PUCSORTHOVIEW
 70
    0
  9
$PUCSORGTOP
 10
0
 20
0
 30
0
  9
$PUCSORGBOTTOM
 10
0
 20
0
 30
0
  9
$PUCSORGLEFT
 10
0
 20
0
 30
0
  9
$PUCSORGRIGHT
 10
0
 20
0
 30
0
  9
$PUCSORGFRONT
 10
0
 20
0
 30
0
  9
$PUCSORGBACK
 10
0
 20
0
 30
0
  9
$USERI1
 70
    0
  9
$USERI2
 70
    0
  9
$USERI3
 70
    0
  9
$USERI4
 70
    0
  9
$USERI5
 70
    0
  9
$USERR1
 40
0
  9
$USERR2
 40
0
  9
$USERR3
 40
0
  9
$USERR4
 40
0
  9
$USERR5
 40
0
  9
$WORLDVIEW
 70
    1
  9
$SHADEDGE
 70
    3
  9
$SHADEDIF
 70
   70
  9
$TILEMODE
 70
    1
  9
$MAXACTVP
 70
   64
  9
$PINSBASE
 10
0
 20
0
 30
0
  9
$PLIMCHECK
 70
    0
  9
$PEXTMIN
 10
1e+20
 20
1e+20
 30
1e+20
  9
$PEXTMAX
 10
-1e+20
 20
-1e+20
 30
-1e+20
  9
$GRIDMODE
 70
    0
  9
$SNAPSTYLE
 70
    0
  9
$PLIMMIN
 10
0
 20
0
  9
$PLIMMAX
 10
420
 20
297
  9
$UNITMODE
 70
    0
  9
$VISRETAIN
 70
    1
  9
$PLINEGEN
 70
    0
  9
$PSLTSCALE
 70
    1
  9
$TREEDEPTH
 70
 3020
  9
$CMLSTYLE
  2
Standard
  9
$CMLJUST
 70
    0
  9
$CMLSCALE
 40
20
  9
$PROXYGRAPHICS
 70
    1
  9
$MEASUREMENT
 70
    1
  9
$CELWEIGHT
370
   -1
  9
$ENDCAPS
280
    0
  9
$JOINSTYLE
280
    0
  9
$LWDISPLAY
290
    0
  9
$INSUNITS
 70
    6
  9
$HYPERLINKBASE
  1

  9
$STYLESHEET
  1

  9
$XEDIT
290
    1
  9
$CEPSNTYPE
380
    0
  9
$PSTYLEMODE
290
    1
  9
$EXTNAMES
290
    1
  9
$PSVPSCALE
 40
0
  9
$OLESTARTUP
290
    0
  9
$SORTENTS
280
  127
  9
$INDEXCTL
280
    0
  9
$HIDETEXT
280
    1
  9
$XCLIPFRAME
290
    1
  9
$HALOGAP
280
    0
  9
$OBSCOLOR
 70
  257
  9
$OBSLTYPE
280
    0
  9
$INTERSECTIONDISPLAY
280
    0
  9
$INTERSECTIONCOLOR
 70
  257
  9
$DIMASSOC
280
    2
  9
$PROJECTNAME
  1

  9
$CAMERADISPLAY
290
    0
  9
$LENSLENGTH
 40
50
  9
$CAMERAHEIGHT
 40
0
  9
$STEPSPERSEC
 40
24
  9
$STEPSIZE
 40
100
  9
$3DDWFPREC
 40
2
  9
$PSOLWIDTH
 40
0.005
  9
$PSOLHEIGHT
 40
0.08
  9
$LOFTANG1
 40
1.570796326795
  9
$LOFTANG2
 40
1.570796326795
  9
$LOFTMAG1
 40
0
  9
$LOFTMAG2
 40
0
  9
$LOFTPARAM
 70
    7
  9
$LOFTNORMALS
280
    1
  9
$LATITUDE
 40
37.795
  9
$LONGITUDE
 40
-122.394
  9
$NORTHDIRECTION
 40
0
  9
$TIMEZONE
 70
-8000
  9
$LIGHTGLYPHDISPLAY
280
    1
  9
$TILEMODELIGHTSYNCH
280
    1
  9
$SOLIDHIST
280
    0
  9
$SHOWHIST
280
    1
  9
$DWFFRAME
280
    2
  9
$DGNFRAME
280
    2
  9
$REALWORLDSCALE
290
    1
  9
$INTERFERECOLOR
 62
  256
  9
$CSHADOW
280
    0
  9
$SHADOWPLANELOCATION
 40
0
  0
ENDSEC
  0
SECTION
  2
CLASSES
  0
ENDSEC
  0
SECTION
  2
TABLES
  0
TABLE
  2
VPORT
  5
8
330
0
100
AcDbSymbolTable
 70
    1
  0
VPORT
  5
31
330
2
100
AcDbSymbolTableRecord
100
AcDbViewportTableRecord
  2
*ACTIVE
 70
    0
 10
0
 20
0
 11
1
 21
1
 12
86.00414638145449
 22
495.7096428791638
 13
0
 23
0
 14
10
 24
10
 15
10
 25
10
 16
0
 26
0
 36
1
 17
0
 27
0
 37
0
 40
107.0353372239538
 41
1.857859531772575
 42
50
 43
0
 44
0
 50
0
 51
0
 71
    0
 72
  100
 73
    1
 74
    3
 75
    0
 76
    0
 77
    0
 78
    0
281
    0
 65
    1
110
0
120
0
130
0
111
1
121
0
131
0
112
0
122
1
132
0
 79
    0
146
0
348
10020
 60
    7
 61
    5
292
1
282
    1
141
0
142
0
 63
  250
421
3358443
  0
ENDTAB
  0
TABLE
  2
LTYPE
  5
5
330
0
100
AcDbSymbolTable
 70
    4
  0
LTYPE
  5
14
330
5
100
AcDbSymbolTableRecord
100
AcDbLinetypeTableRecord
  2
ByBlock
 70
    0
  3

 72
   65
 73
    0
 40
0
  0
LTYPE
  5
15
330
5
100
AcDbSymbolTableRecord
100
AcDbLinetypeTableRecord
  2
ByLayer
 70
    0
  3

 72
   65
 73
    0
 40
0
  0
LTYPE
  5
16
330
5
100
AcDbSymbolTableRecord
100
AcDbLinetypeTableRecord
  2
Continuous
 70
    0
  3
Solid line
 72
   65
 73
    0
 40
0
  0
LTYPE
  5
32
330
5
100
AcDbSymbolTableRecord
100
AcDbLinetypeTableRecord
  2
DOT
 70
    0
  3
Dot . . . . . . . . . . . . . . . . . . . . . .
 72
   65
 73
    2
 40
6.35
 49
0
 74
    0
 49
-6.35
 74
    0
  0
LTYPE
  5
33
330
5
100
AcDbSymbolTableRecord
100
AcDbLinetypeTableRecord
  2
DOTTINY
 70
    0
  3
Dot (.15x) .....................................
 72
   65
 73
    2
 40
0.9525
 49
0
 74
    0
 49
-0.9525
 74
    0
  0
LTYPE
  5
34
330
5
100
AcDbSymbolTableRecord
100
AcDbLinetypeTableRecord
  2
DOT2
 70
    0
  3
Dot (.5x) .....................................
 72
   65
 73
    2
 40
3.175
 49
0
 74
    0
 49
-3.175
 74
    0
  0
LTYPE
  5
35
330
5
100
AcDbSymbolTableRecord
100
AcDbLinetypeTableRecord
  2
DOTX2
 70
    0
  3
Dot (2x) .  .  .  .  .  .  .  .  .  .  .  .  .
 72
   65
 73
    2
 40
12.7
 49
0
 74
    0
 49
-12.7
 74
    0
  0
LTYPE
  5
36
330
5
100
AcDbSymbolTableRecord
100
AcDbLinetypeTableRecord
  2
DASHED
 70
    0
  3
Dashed _ _ _ _ _ _ _ _ _ _ _ _ _ _ _ _ _
 72
   65
 73
    2
 40
19.05
 49
12.7
 74
    0
 49
-6.35
 74
    0
  0
LTYPE
  5
37
330
5
100
AcDbSymbolTableRecord
100
AcDbLinetypeTableRecord
  2
DASHEDTINY
 70
    0
  3
Dashed (.15x) _ _ _ _ _ _ _ _ _ _ _ _ _ _ _ _ _
 72
   65
 73
    2
 40
2.8575
 49
1.905
 74
    0
 49
-0.9525
 74
    0
  0
LTYPE
  5
38
330
5
100
AcDbSymbolTableRecord
100
AcDbLinetypeTableRecord
  2
DASHED2
 70
    0
  3
Dashed (.5x) _ _ _ _ _ _ _ _ _ _ _ _ _ _ _ _ _
 72
   65
 73
    2
 40
9.524999999999999
 49
6.35
 74
    0
 49
-3.175
 74
    0
  0
LTYPE
  5
39
330
5
100
AcDbSymbolTableRecord
100
AcDbLinetypeTableRecord
  2
DASHEDX2
 70
    0
  3
Dashed (2x) ____  ____  ____  ____  ____  ___
 72
   65
 73
    2
 40
38.09999999999999
 49
25.4
 74
    0
 49
-12.7
 74
    0
  0
LTYPE
  5
3A
330
5
100
AcDbSymbolTableRecord
100
AcDbLinetypeTableRecord
  2
DASHDOT
 70
    0
  3
Dash dot __ . __ . __ . __ . __ . __ . __ . __
 72
   65
 73
    4
 40
25.4
 49
12.7
 74
    0
 49
-6.35
 74
    0
 49
0
 74
    0
 49
-6.35
 74
    0
  0
LTYPE
  5
3B
330
5
100
AcDbSymbolTableRecord
100
AcDbLinetypeTableRecord
  2
DASHDOTTINY
 70
    0
  3
Dash dot (.15x) _._._._._._._._._._._._._._._.
 72
   65
 73
    4
 40
3.81
 49
1.905
 74
    0
 49
-0.9525
 74
    0
 49
0
 74
    0
 49
-0.9525
 74
    0
  0
LTYPE
  5
3C
330
5
100
AcDbSymbolTableRecord
100
AcDbLinetypeTableRecord
  2
DASHDOT2
 70
    0
  3
Dash dot (.5x) _._._._._._._._._._._._._._._.
 72
   65
 73
    4
 40
12.7
 49
6.35
 74
    0
 49
-3.175
 74
    0
 49
0
 74
    0
 49
-3.175
 74
    0
  0
LTYPE
  5
3D
330
5
100
AcDbSymbolTableRecord
100
AcDbLinetypeTableRecord
  2
DASHDOTX2
 70
    0
  3
Dash dot (2x) ____  .  ____  .  ____  .  ___
 72
   65
 73
    4
 40
50.8
 49
25.4
 74
    0
 49
-12.7
 74
    0
 49
0
 74
    0
 49
-12.7
 74
    0
  0
LTYPE
  5
3E
330
5
100
AcDbSymbolTableRecord
100
AcDbLinetypeTableRecord
  2
DIVIDE
 70
    0
  3
Divide ____ . . ____ . . ____ . . ____ . . ____
 72
   65
 73
    6
 40
31.75
 49
12.7
 74
    0
 49
-6.35
 74
    0
 49
0
 74
    0
 49
-6.35
 74
    0
 49
0
 74
    0
 49
-6.35
 74
    0
  0
LTYPE
  5
3F
330
5
100
AcDbSymbolTableRecord
100
AcDbLinetypeTableRecord
  2
DIVIDETINY
 70
    0
  3
Divide (.15x) __..__..__..__..__..__..__..__.._
 72
   65
 73
    6
 40
4.7625
 49
1.905
 74
    0
 49
-0.9525
 74
    0
 49
0
 74
    0
 49
-0.9525
 74
    0
 49
0
 74
    0
 49
-0.9525
 74
    0
  0
LTYPE
  5
40
330
5
100
AcDbSymbolTableRecord
100
AcDbLinetypeTableRecord
  2
DIVIDE2
 70
    0
  3
Divide (.5x) __..__..__..__..__..__..__..__.._
 72
   65
 73
    6
 40
15.875
 49
6.35
 74
    0
 49
-3.175
 74
    0
 49
0
 74
    0
 49
-3.175
 74
    0
 49
0
 74
    0
 49
-3.175
 74
    0
  0
LTYPE
  5
41
330
5
100
AcDbSymbolTableRecord
100
AcDbLinetypeTableRecord
  2
DIVIDEX2
 70
    0
  3
Divide (2x) ________  .  .  ________  .  .  _
 72
   65
 73
    6
 40
63.5
 49
25.4
 74
    0
 49
-12.7
 74
    0
 49
0
 74
    0
 49
-12.7
 74
    0
 49
0
 74
    0
 49
-12.7
 74
    0
  0
LTYPE
  5
42
330
5
100
AcDbSymbolTableRecord
100
AcDbLinetypeTableRecord
  2
BORDER
 70
    0
  3
Border __ __ . __ __ . __ __ . __ __ . __ __ .
 72
   65
 73
    6
 40
44.45
 49
12.7
 74
    0
 49
-6.35
 74
    0
 49
12.7
 74
    0
 49
-6.35
 74
    0
 49
0
 74
    0
 49
-6.35
 74
    0
  0
LTYPE
  5
43
330
5
100
AcDbSymbolTableRecord
100
AcDbLinetypeTableRecord
  2
BORDERTINY
 70
    0
  3
Border (.15x) __.__.__.__.__.__.__.__.__.__.__.
 72
   65
 73
    6
 40
6.6675
 49
1.905
 74
    0
 49
-0.9525
 74
    0
 49
1.905
 74
    0
 49
-0.9525
 74
    0
 49
0
 74
    0
 49
-0.9525
 74
    0
  0
LTYPE
  5
44
330
5
100
AcDbSymbolTableRecord
100
AcDbLinetypeTableRecord
  2
BORDER2
 70
    0
  3
Border (.5x) __.__.__.__.__.__.__.__.__.__.__.
 72
   65
 73
    6
 40
22.225
 49
6.35
 74
    0
 49
-3.175
 74
    0
 49
6.35
 74
    0
 49
-3.175
 74
    0
 49
0
 74
    0
 49
-3.175
 74
    0
  0
LTYPE
  5
45
330
5
100
AcDbSymbolTableRecord
100
AcDbLinetypeTableRecord
  2
BORDERX2
 70
    0
  3
Border (2x) ____  ____  .  ____  ____  .  ___
 72
   65
 73
    6
 40
88.89999999999999
 49
25.4
 74
    0
 49
-12.7
 74
    0
 49
25.4
 74
    0
 49
-12.7
 74
    0
 49
0
 74
    0
 49
-12.7
 74
    0
  0
LTYPE
  5
46
330
5
100
AcDbSymbolTableRecord
100
AcDbLinetypeTableRecord
  2
CENTER
 70
    0
  3
Center ____ _ ____ _ ____ _ ____ _ ____ _ ____
 72
   65
 73
    4
 40
50.8
 49
31.75
 74
    0
 49
-6.35
 74
    0
 49
6.35
 74
    0
 49
-6.35
 74
    0
  0
LTYPE
  5
47
330
5
100
AcDbSymbolTableRecord
100
AcDbLinetypeTableRecord
  2
CENTERTINY
 70
    0
  3
Center (.15x) ___ _ ___ _ ___ _ ___ _ ___ _ ___
 72
   65
 73
    4
 40
7.619999999999999
 49
4.7625
 74
    0
 49
-0.9525
 74
    0
 49
0.9525
 74
    0
 49
-0.9525
 74
    0
  0
LTYPE
  5
48
330
5
100
AcDbSymbolTableRecord
100
AcDbLinetypeTableRecord
  2
CENTER2
 70
    0
  3
Center (.5x) ___ _ ___ _ ___ _ ___ _ ___ _ ___
 72
   65
 73
    4
 40
28.575
 49
19.05
 74
    0
 49
-3.175
 74
    0
 49
3.175
 74
    0
 49
-3.175
 74
    0
  0
LTYPE
  5
49
330
5
100
AcDbSymbolTableRecord
100
AcDbLinetypeTableRecord
  2
CENTERX2
 70
    0
  3
Center (2x) ________  __  ________  __  _____
 72
   65
 73
    4
 40
101.6
 49
63.5
 74
    0
 49
-12.7
 74
    0
 49
12.7
 74
    0
 49
-12.7
 74
    0
  0
ENDTAB
  0
TABLE
  2
LAYER
  5
2
330
0
100
AcDbSymbolTable
 70
    1
  0
LAYER
  5
10
330
2
100
AcDbSymbolTableRecord
100
AcDbLayerTableRecord
  2
0
 70
    0
 62
    7
  6
CONTINUOUS
370
   -3
390
F
  0
LAYER
  5
4A
330
2
100
AcDbSymbolTableRecord
100
AcDbLayerTableRecord
  2
AFLORAMIENTOS
 70
    0
 62
    4
  6
CONTINUOUS
370
   -3
390
F
  0
LAYER
  5
4B
330
2
100
AcDbSymbolTableRecord
100
AcDbLayerTableRecord
  2
CONTORNO
 70
    0
 62
    7
  6
CONTINUOUS
370
   -3
390
F
  0
LAYER
  5
4C
330
2
100
AcDbSymbolTableRecord
100
AcDbLayerTableRecord
  2
Defpoints
 70
    0
 62
    7
  6
CONTINUOUS
290
0
370
   -3
390
F
  0
LAYER
  5
4D
330
2
100
AcDbSymbolTableRecord
100
AcDbLayerTableRecord
  2
ESTRATO_I
 70
    0
 62
    1
  6
CONTINUOUS
370
   -3
390
F
  0
LAYER
  5
4E
330
2
100
AcDbSymbolTableRecord
100
AcDbLayerTableRecord
  2
ESTRATO_IV
 70
    0
 62
    5
  6
CONTINUOUS
370
   -3
390
F
  0
LAYER
  5
4F
330
2
100
AcDbSymbolTableRecord
100
AcDbLayerTableRecord
  2
ESTRATO_V
 70
    0
 62
   30
  6
CONTINUOUS
370
   -3
390
F
  0
LAYER
  5
50
330
2
100
AcDbSymbolTableRecord
100
AcDbLayerTableRecord
  2
ESTRATO_VI
 70
    0
 62
   32
  6
CONTINUOUS
370
   -3
390
F
  0
LAYER
  5
51
330
2
100
AcDbSymbolTableRecord
100
AcDbLayerTableRecord
  2
ETIQUETAS
 70
    0
 62
    7
  6
CONTINUOUS
370
   -3
390
F
  0
LAYER
  5
52
330
2
100
AcDbSymbolTableRecord
100
AcDbLayerTableRecord
  2
NAF_ABATIDO
 70
    0
 62
    4
  6
CONTINUOUS
370
   -3
390
F
  0
LAYER
  5
53
330
2
100
AcDbSymbolTableRecord
100
AcDbLayerTableRecord
  2
NAF_CRITICO
 70
    0
 62
    5
  6
CONTINUOUS
370
   -3
390
F
  0
LAYER
  5
54
330
2
100
AcDbSymbolTableRecord
100
AcDbLayerTableRecord
  2
TERRENO
 70
    0
 62
    7
  6
CONTINUOUS
370
   -3
390
F
  0
LAYER
  5
55
330
2
100
AcDbSymbolTableRecord
100
AcDbLayerTableRecord
  2
TITULO
 70
    0
 62
    7
  6
CONTINUOUS
370
   -3
390
F
  0
ENDTAB
  0
TABLE
  2
STYLE
  5
3
330
0
100
AcDbSymbolTable
 70
    3
  0
STYLE
  5
56
330
2
100
AcDbSymbolTableRecord
100
AcDbTextStyleTableRecord
  2
STANDARD
 70
    0
 40
0
 41
1
 50
0
 71
    0
 42
1
  3
STANDARD
  4

  0
ENDTAB
  0
TABLE
  2
VIEW
  5
6
330
0
100
AcDbSymbolTable
 70
    0
  0
ENDTAB
  0
TABLE
  2
UCS
  5
7
330
0
100
AcDbSymbolTable
 70
    0
  0
ENDTAB
  0
TABLE
  2
APPID
  5
9
330
0
100
AcDbSymbolTable
 70
    1
  0
APPID
  5
12
330
9
100
AcDbSymbolTableRecord
100
AcDbRegAppTableRecord
  2
ACAD
 70
    0
  0
APPID
  5
57
330
9
100
AcDbSymbolTableRecord
100
AcDbRegAppTableRecord
  2
LibreCad
 70
    0
  0
ENDTAB
  0
TABLE
  2
DIMSTYLE
  5
A
330
0
100
AcDbSymbolTable
 70
    1
100
AcDbDimStyleTable
 71
    1
  0
DIMSTYLE
105
58
330
A
100
AcDbSymbolTableRecord
100
AcDbDimStyleTableRecord
  2
Standard
 70
    0
 40
1
 41
0.175
 42
0.125
 43
0.38
 44
0.375
 45
0
 46
0
 47
0
 48
0
 49
1
140
0.25
141
0.09
142
0
143
25.4
144
100
145
0
146
1
147
0.1
148
0
 71
    0
 72
    0
 73
    0
 74
    1
 75
    0
 76
    0
 77
    0
 78
   12
 79
    3
170
    0
171
    2
172
    0
173
    0
174
    0
175
    0
176
    0
177
    0
178
    0
179
    2
271
    2
272
    4
273
    2
274
    2
275
    0
276
    0
277
    2
278
   46
279
    0
280
    0
281
    0
282
    0
283
    1
284
    0
285
    0
286
    0
288
    0
289
    3
  0
ENDTAB
  0
TABLE
  2
BLOCK_RECORD
  5
1
330
0
100
AcDbSymbolTable
 70
    2
  0
BLOCK_RECORD
  5
1F
330
1
100
AcDbSymbolTableRecord
100
AcDbBlockTableRecord
  2
*Model_Space
 70
    0
280
    1
281
    0
  0
BLOCK_RECORD
  5
1E
330
1
100
AcDbSymbolTableRecord
100
AcDbBlockTableRecord
  2
*Paper_Space
 70
    0
280
    1
281
    0
  0
BLOCK_RECORD
  5
59
330
1
100
AcDbSymbolTableRecord
100
AcDbBlockTableRecord
  2
_ARCHTICK
 70
    0
280
    1
281
    0
  0
BLOCK_RECORD
  5
5C
330
1
100
AcDbSymbolTableRecord
100
AcDbBlockTableRecord
  2
_CLOSEDFILLED
 70
    0
280
    1
281
    0
  0
BLOCK_RECORD
  5
5F
330
1
100
AcDbSymbolTableRecord
100
AcDbBlockTableRecord
  2
_CLOSEDBLANK
 70
    0
280
    1
281
    0
  0
ENDTAB
  0
ENDSEC
  0
SECTION
  2
BLOCKS
  0
BLOCK
  5
20
330
1F
100
AcDbEntity
  8
0
100
AcDbBlockBegin
  2
*Model_Space
 70
    0
 10
0
 20
0
 30
0
  3
*Model_Space
  1

  0
ENDBLK
  5
21
330
1F
100
AcDbEntity
  8
0
100
AcDbBlockEnd
  0
BLOCK
  5
1C
330
1B
100
AcDbEntity
  8
0
100
AcDbBlockBegin
  2
*Paper_Space
 70
    0
 10
0
 20
0
 30
0
  3
*Paper_Space
  1

  0
ENDBLK
  5
1D
330
1F
100
AcDbEntity
  8
0
100
AcDbBlockEnd
  0
BLOCK
  5
5A
330
59
100
AcDbEntity
  8
0
100
AcDbBlockBegin
  2
_ARCHTICK
 70
    0
 10
0
 20
0
  3
_ARCHTICK
  1

  0
LWPOLYLINE
  5
62
100
AcDbEntity
  8
0
  6
ByBlock
 62
    0
370
   -1
100
AcDbPolyline
 90
    2
 70
    0
 43
0
 10
-0.5
 20
-0.5
 10
0.5
 20
0.5
  0
ENDBLK
  5
5B
330
59
100
AcDbEntity
  8
0
100
AcDbBlockEnd
  0
BLOCK
  5
5D
330
5C
100
AcDbEntity
  8
0
100
AcDbBlockBegin
  2
_CLOSEDFILLED
 70
    0
 10
0
 20
0
  3
_CLOSEDFILLED
  1

  0
SOLID
  5
63
100
AcDbEntity
  8
0
  6
ByBlock
 62
    0
370
   -1
100
AcDbTrace
 10
-1
 20
0.1643989837240254
 30
0
 11
0
 21
0
 31
0
 12
-1
 22
-0.1643989837240254
 32
0
 13
-1
 23
-0.1643989837240254
 33
0
  0
ENDBLK
  5
5E
330
5C
100
AcDbEntity
  8
0
100
AcDbBlockEnd
  0
BLOCK
  5
60
330
5F
100
AcDbEntity
  8
0
100
AcDbBlockBegin
  2
_CLOSEDBLANK
 70
    0
 10
0
 20
0
  3
_CLOSEDBLANK
  1

  0
LWPOLYLINE
  5
64
100
AcDbEntity
  8
0
  6
ByBlock
 62
    0
370
   -1
100
AcDbPolyline
 90
    3
 70
    1
 43
0
 10
-1
 20
0.1643989837240254
 10
0
 20
0
 10
-1
 20
-0.1643989837240254
  0
ENDBLK
  5
61
330
5F
100
AcDbEntity
  8
0
100
AcDbBlockEnd
  0
ENDSEC
  0
SECTION
  2
ENTITIES
  0
LWPOLYLINE
  5
65
100
AcDbEntity
  8
CONTORNO
  6
ByLayer
 62
  256
370
   35
100
AcDbPolyline
 90
  203
 70
    1
 43
0
 10
0
 20
934.7501999999999
 10
0.805
 20
934.7757
 10
1.61
 20
934.8011
 10
2.415
 20
934.8265
 10
3.22
 20
934.8519
 10
4.024
 20
934.8773
 10
4.829
 20
934.9028
 10
5.634
 20
934.9281999999999
 10
6.439
 20
934.9536000000001
 10
7.244
 20
934.979
 10
8.048999999999999
 20
935.0045
 10
8.853999999999999
 20
935.0299
 10
9.659000000000001
 20
935.0553
 10
10.464
 20
935.0807
 10
11.268
 20
935.1061999999999
 10
12.073
 20
935.1316
 10
12.878
 20
935.157
 10
13.683
 20
935.1824
 10
14.488
 20
935.2079
 10
15.293
 20
935.2333
 10
16.098
 20
935.2587
 10
16.903
 20
935.2841
 10
17.708
 20
935.3096
 10
18.513
 20
935.335
 10
19.317
 20
935.3604
 10
20.122
 20
935.3858
 10
20.927
 20
935.4112
 10
21.732
 20
935.4367
 10
22.537
 20
935.4621
 10
23.342
 20
935.4875
 10
24.147
 20
935.5128999999999
 10
24.952
 20
935.5384
 10
25.757
 20
935.5168
 10
26.561
 20
935.4556
 10
27.366
 20
935.3943
 10
28.171
 20
935.3330999999999
 10
28.976
 20
935.2719
 10
29.781
 20
935.2107
 10
30.586
 20
935.1494
 10
31.391
 20
935.0882
 10
32.196
 20
935.027
 10
33.001
 20
934.9657999999999
 10
33.805
 20
934.9045
 10
34.61
 20
934.8433
 10
35.415
 20
934.7821
 10
36.22
 20
934.7209
 10
37.025
 20
934.6596
 10
37.83
 20
934.5984
 10
38.635
 20
934.5372
 10
39.44
 20
934.476
 10
40.245
 20
934.4147
 10
41.049
 20
934.3535000000001
 10
41.854
 20
934.2923
 10
42.659
 20
934.2311
 10
43.464
 20
934.1698
 10
44.269
 20
934.1086
 10
45.074
 20
934.0474
 10
45.879
 20
933.9862000000001
 10
46.684
 20
933.9249
 10
47.489
 20
933.8637
 10
48.294
 20
933.8025
 10
49.098
 20
933.7413
 10
49.903
 20
933.6799999999999
 10
50.708
 20
933.6188
 10
51.513
 20
933.5576
 10
52.318
 20
933.4964
 10
53.123
 20
933.4351
 10
53.928
 20
933.3739
 10
54.733
 20
933.3126999999999
 10
55.538
 20
933.2514
 10
56.342
 20
933.1902
 10
57.147
 20
933.129
 10
57.952
 20
933.0475
 10
58.757
 20
932.9305000000001
 10
59.562
 20
932.8135
 10
60.367
 20
932.6965
 10
61.172
 20
932.5794
 10
61.977
 20
932.4624
 10
62.782
 20
932.3454
 10
63.586
 20
932.2284
 10
64.39100000000001
 20
932.1114
 10
65.196
 20
931.9943
 10
66.001
 20
931.8773
 10
66.806
 20
931.7603
 10
67.611
 20
931.6433
 10
68.416
 20
931.5263
 10
69.221
 20
931.4092000000001
 10
70.026
 20
931.2922
 10
70.83
 20
931.1752
 10
71.63500000000001
 20
931.0582000000001
 10
72.44
 20
930.9412
 10
73.245
 20
930.8241
 10
74.05
 20
930.7071
 10
74.855
 20
930.5901
 10
75.66
 20
930.4731
 10
76.465
 20
930.3561
 10
77.27
 20
930.239
 10
78.075
 20
930.122
 10
78.879
 20
930.005
 10
79.684
 20
929.888
 10
80.489
 20
929.771
 10
81.294
 20
929.6539
 10
82.099
 20
929.5368999999999
 10
82.904
 20
929.4199
 10
83.709
 20
929.3029
 10
84.514
 20
929.2066
 10
85.319
 20
929.1446
 10
86.123
 20
929.0825
 10
86.928
 20
929.0205
 10
87.733
 20
928.9585
 10
88.538
 20
928.8964999999999
 10
89.343
 20
928.8344
 10
90.148
 20
928.7723999999999
 10
90.953
 20
928.7104
 10
91.758
 20
928.6484
 10
92.563
 20
928.5863000000001
 10
93.367
 20
928.5243
 10
94.172
 20
928.4623
 10
94.977
 20
928.4002
 10
95.782
 20
928.3382
 10
96.587
 20
928.2762
 10
97.392
 20
928.2142
 10
98.197
 20
928.1521
 10
99.002
 20
928.0901
 10
99.807
 20
928.0281
 10
100.612
 20
927.9661
 10
101.416
 20
927.904
 10
102.221
 20
927.842
 10
103.026
 20
927.78
 10
103.831
 20
927.718
 10
104.636
 20
927.6559
 10
105.441
 20
927.5939
 10
106.246
 20
927.5319
 10
107.051
 20
927.4698
 10
107.856
 20
927.4078
 10
108.66
 20
927.3458000000001
 10
109.465
 20
927.2838
 10
110.27
 20
927.2217000000001
 10
111.075
 20
927.1597
 10
111.88
 20
927.0977
 10
112.685
 20
927.0352
 10
113.49
 20
925.4299999999999
 10
114.295
 20
925.3381000000001
 10
115.1
 20
925.3501
 10
115.904
 20
925.3646
 10
116.709
 20
925.3801
 10
117.514
 20
925.3945
 10
118.319
 20
925.409
 10
119.124
 20
925.4235
 10
119.929
 20
925.438
 10
120.734
 20
925.4525
 10
121.539
 20
925.467
 10
122.344
 20
925.4815
 10
123.148
 20
925.4897
 10
123.953
 20
925.4804
 10
124.758
 20
925.4675999999999
 10
125.563
 20
925.4536000000001
 10
126.368
 20
925.4391000000001
 10
127.173
 20
925.6301999999999
 10
127.978
 20
925.7488
 10
128.783
 20
925.2289
 10
129.588
 20
924.6932
 10
130.393
 20
924.1589
 10
131.197
 20
923.6233
 10
132.002
 20
923.0885
 10
132.807
 20
922.5806
 10
133.612
 20
922.2952
 10
134.417
 20
921.9255000000001
 10
135.222
 20
921.4841
 10
136.027
 20
921.0412
 10
136.832
 20
920.5993
 10
137.637
 20
920.1568
 10
138.441
 20
919.8271
 10
139.246
 20
919.9114
 10
140.051
 20
920.0665
 10
140.856
 20
920.222
 10
141.661
 20
920.3776
 10
142.466
 20
920.5321
 10
143.271
 20
920.6876999999999
 10
144.076
 20
920.8432
 10
144.881
 20
920.9986
 10
145.685
 20
921.1534
 10
146.49
 20
921.3089
 10
147.295
 20
921.4641
 10
148.1
 20
921.6191
 10
148.905
 20
921.7744
 10
149.71
 20
921.9296000000001
 10
150.515
 20
922.0848
 10
151.32
 20
922.2403
 10
152.125
 20
922.3952
 10
152.929
 20
922.5503
 10
153.734
 20
922.706
 10
154.539
 20
922.8607
 10
155.344
 20
923.0146
 10
156.149
 20
923.1374
 10
156.954
 20
923.2292
 10
157.759
 20
923.3214
 10
158.564
 20
923.4136999999999
 10
159.369
 20
923.5055
 10
160.174
 20
923.8347
 10
160.978
 20
924.443
 10
160.978
 20
911.8169
 10
0
 20
911.8169
  0
LWPOLYLINE
  5
66
100
AcDbEntity
  8
CONTORNO
  6
ByLayer
 62
  256
370
   35
100
AcDbPolyline
 90
  283
 70
    1
 43
0
 10
0
 20
947.0574
 10
0.805
 20
947.028
 10
1.61
 20
946.9987
 10
2.415
 20
946.9693
 10
3.22
 20
946.9399
 10
4.024
 20
946.9106
 10
4.829
 20
946.8812
 10
5.634
 20
946.8519
 10
6.439
 20
946.8225
 10
7.244
 20
946.7932
 10
8.048999999999999
 20
946.7637999999999
 10
8.853999999999999
 20
946.7345
 10
9.659000000000001
 20
946.7051
 10
10.464
 20
946.6757
 10
11.268
 20
946.6464
 10
12.073
 20
946.617
 10
12.878
 20
946.5877
 10
13.683
 20
946.5583
 10
14.488
 20
946.529
 10
15.293
 20
946.4996
 10
16.098
 20
946.4703
 10
16.903
 20
946.4409000000001
 10
17.708
 20
946.4115
 10
18.513
 20
946.3822
 10
19.317
 20
946.3528
 10
20.122
 20
946.3235
 10
20.927
 20
946.2941
 10
21.732
 20
946.2648
 10
22.537
 20
946.2354
 10
23.342
 20
946.2061
 10
24.147
 20
946.1767
 10
24.952
 20
946.1473999999999
 10
25.757
 20
946.1180000000001
 10
26.561
 20
946.1086
 10
27.366
 20
946.1307
 10
28.171
 20
946.1529
 10
28.976
 20
946.175
 10
29.781
 20
946.1972
 10
30.586
 20
946.2193
 10
31.391
 20
946.2415
 10
32.196
 20
946.2636
 10
33.001
 20
946.2858
 10
33.805
 20
946.3079
 10
34.61
 20
946.3301
 10
35.415
 20
946.3522
 10
36.22
 20
946.3744
 10
37.025
 20
946.3964999999999
 10
37.83
 20
946.4186999999999
 10
38.635
 20
946.4408
 10
39.44
 20
946.463
 10
40.245
 20
946.4851
 10
41.049
 20
946.5073
 10
41.854
 20
946.5294
 10
42.659
 20
946.5516
 10
43.464
 20
946.5737
 10
44.269
 20
946.5959
 10
45.074
 20
946.6180000000001
 10
45.879
 20
946.5602
 10
46.684
 20
946.4079
 10
47.489
 20
946.2556
 10
48.294
 20
946.1032
 10
49.098
 20
945.9509
 10
49.903
 20
945.7986
 10
50.708
 20
945.6463
 10
51.513
 20
945.494
 10
52.318
 20
945.3416
 10
53.123
 20
945.1893
 10
53.928
 20
945.037
 10
54.733
 20
944.8847
 10
55.538
 20
944.7323
 10
56.342
 20
944.58
 10
57.147
 20
944.4277
 10
57.952
 20
944.2754
 10
58.757
 20
944.1231
 10
59.562
 20
943.9707
 10
60.367
 20
943.8184
 10
61.172
 20
943.6661
 10
61.977
 20
943.5137999999999
 10
62.782
 20
943.3615
 10
63.586
 20
943.2091
 10
64.39100000000001
 20
943.0568
 10
65.196
 20
942.9045
 10
66.001
 20
942.7522
 10
66.806
 20
942.5998
 10
67.611
 20
942.4475
 10
68.416
 20
942.2952
 10
69.221
 20
942.1429000000001
 10
70.026
 20
941.9906
 10
70.83
 20
941.8382
 10
71.63500000000001
 20
941.6858999999999
 10
72.44
 20
941.5336
 10
73.245
 20
941.3813
 10
74.05
 20
941.229
 10
74.855
 20
941.0766
 10
75.66
 20
940.9243
 10
76.465
 20
940.772
 10
77.27
 20
940.6197
 10
78.075
 20
940.4674
 10
78.879
 20
940.3150000000001
 10
79.684
 20
940.1627
 10
80.489
 20
940.0608
 10
81.294
 20
939.9785000000001
 10
82.099
 20
939.8962
 10
82.904
 20
939.8139
 10
83.709
 20
939.7316
 10
84.514
 20
939.6493
 10
85.319
 20
939.567
 10
86.123
 20
939.4847
 10
86.928
 20
939.4023999999999
 10
87.733
 20
939.3201
 10
88.538
 20
939.2378
 10
89.343
 20
939.1555
 10
90.148
 20
939.0732
 10
90.953
 20
938.9909
 10
91.758
 20
938.9087
 10
92.563
 20
938.8264
 10
93.367
 20
938.7441
 10
94.172
 20
938.6618
 10
94.977
 20
938.5795000000001
 10
95.782
 20
938.4972
 10
96.587
 20
938.4149
 10
97.392
 20
938.3326
 10
98.197
 20
938.2503
 10
99.002
 20
938.1383
 10
99.807
 20
937.3329
 10
100.612
 20
936.5596
 10
101.416
 20
936.2009
 10
102.221
 20
936.2012
 10
103.026
 20
936.2071
 10
103.831
 20
935.8315
 10
104.636
 20
935.0527
 10
105.441
 20
934.2483
 10
106.246
 20
933.443
 10
107.051
 20
932.6376
 10
107.856
 20
931.833
 10
108.66
 20
931.2897
 10
109.465
 20
931.2326
 10
110.27
 20
931.2471
 10
111.075
 20
930.8853
 10
111.88
 20
929.2582
 10
112.685
 20
927.4726000000001
 10
113.49
 20
925.4299999999999
 10
112.685
 20
927.0352
 10
111.88
 20
927.0977
 10
111.075
 20
927.1597
 10
110.27
 20
927.2217000000001
 10
109.465
 20
927.2838
 10
108.66
 20
927.3458000000001
 10
107.856
 20
927.4078
 10
107.051
 20
927.4698
 10
106.246
 20
927.5319
 10
105.441
 20
927.5939
 10
104.636
 20
927.6559
 10
103.831
 20
927.718
 10
103.026
 20
927.78
 10
102.221
 20
927.842
 10
101.416
 20
927.904
 10
100.612
 20
927.9661
 10
99.807
 20
928.0281
 10
99.002
 20
928.0901
 10
98.197
 20
928.1521
 10
97.392
 20
928.2142
 10
96.587
 20
928.2762
 10
95.782
 20
928.3382
 10
94.977
 20
928.4002
 10
94.172
 20
928.4623
 10
93.367
 20
928.5243
 10
92.563
 20
928.5863000000001
 10
91.758
 20
928.6484
 10
90.953
 20
928.7104
 10
90.148
 20
928.7723999999999
 10
89.343
 20
928.8344
 10
88.538
 20
928.8964999999999
 10
87.733
 20
928.9585
 10
86.928
 20
929.0205
 10
86.123
 20
929.0825
 10
85.319
 20
929.1446
 10
84.514
 20
929.2066
 10
83.709
 20
929.3029
 10
82.904
 20
929.4199
 10
82.099
 20
929.5368999999999
 10
81.294
 20
929.6539
 10
80.489
 20
929.771
 10
79.684
 20
929.888
 10
78.879
 20
930.005
 10
78.075
 20
930.122
 10
77.27
 20
930.239
 10
76.465
 20
930.3561
 10
75.66
 20
930.4731
 10
74.855
 20
930.5901
 10
74.05
 20
930.7071
 10
73.245
 20
930.8241
 10
72.44
 20
930.9412
 10
71.63500000000001
 20
931.0582000000001
 10
70.83
 20
931.1752
 10
70.026
 20
931.2922
 10
69.221
 20
931.4092000000001
 10
68.416
 20
931.5263
 10
67.611
 20
931.6433
 10
66.806
 20
931.7603
 10
66.001
 20
931.8773
 10
65.196
 20
931.9943
 10
64.39100000000001
 20
932.1114
 10
63.586
 20
932.2284
 10
62.782
 20
932.3454
 10
61.977
 20
932.4624
 10
61.172
 20
932.5794
 10
60.367
 20
932.6965
 10
59.562
 20
932.8135
 10
58.757
 20
932.9305000000001
 10
57.952
 20
933.0475
 10
57.147
 20
933.129
 10
56.342
 20
933.1902
 10
55.538
 20
933.2514
 10
54.733
 20
933.3126999999999
 10
53.928
 20
933.3739
 10
53.123
 20
933.4351
 10
52.318
 20
933.4964
 10
51.513
 20
933.5576
 10
50.708
 20
933.6188
 10
49.903
 20
933.6799999999999
 10
49.098
 20
933.7413
 10
48.294
 20
933.8025
 10
47.489
 20
933.8637
 10
46.684
 20
933.9249
 10
45.879
 20
933.9862000000001
 10
45.074
 20
934.0474
 10
44.269
 20
934.1086
 10
43.464
 20
934.1698
 10
42.659
 20
934.2311
 10
41.854
 20
934.2923
 10
41.049
 20
934.3535000000001
 10
40.245
 20
934.4147
 10
39.44
 20
934.476
 10
38.635
 20
934.5372
 10
37.83
 20
934.5984
 10
37.025
 20
934.6596
 10
36.22
 20
934.7209
 10
35.415
 20
934.7821
 10
34.61
 20
934.8433
 10
33.805
 20
934.9045
 10
33.001
 20
934.9657999999999
 10
32.196
 20
935.027
 10
31.391
 20
935.0882
 10
30.586
 20
935.1494
 10
29.781
 20
935.2107
 10
28.976
 20
935.2719
 10
28.171
 20
935.3330999999999
 10
27.366
 20
935.3943
 10
26.561
 20
935.4556
 10
25.757
 20
935.5168
 10
24.952
 20
935.5384
 10
24.147
 20
935.5128999999999
 10
23.342
 20
935.4875
 10
22.537
 20
935.4621
 10
21.732
 20
935.4367
 10
20.927
 20
935.4112
 10
20.122
 20
935.3858
 10
19.317
 20
935.3604
 10
18.513
 20
935.335
 10
17.708
 20
935.3096
 10
16.903
 20
935.2841
 10
16.098
 20
935.2587
 10
15.293
 20
935.2333
 10
14.488
 20
935.2079
 10
13.683
 20
935.1824
 10
12.878
 20
935.157
 10
12.073
 20
935.1316
 10
11.268
 20
935.1061999999999
 10
10.464
 20
935.0807
 10
9.659000000000001
 20
935.0553
 10
8.853999999999999
 20
935.0299
 10
8.048999999999999
 20
935.0045
 10
7.244
 20
934.979
 10
6.439
 20
934.9536000000001
 10
5.634
 20
934.9281999999999
 10
4.829
 20
934.9028
 10
4.024
 20
934.8773
 10
3.22
 20
934.8519
 10
2.415
 20
934.8265
 10
1.61
 20
934.8011
 10
0.805
 20
934.7757
 10
0
 20
934.7501999999999
  0
HATCH
  5
67
100
AcDbEntity
  8
ESTRATO_V
  6
ByLayer
 62
    7
370
   -1
100
AcDbHatch
 10
0
 20
0
 30
0
210
0
220
0
230
1
  2
ANSI31
 70
    0
 71
    0
 91
    1
 92
    0
 93
  247
 72
    1
 10
0
 20
960.2247
 11
0.805
 21
960.1779
 72
    1
 10
0.805
 20
960.1779
 11
1.61
 21
960.131
 72
    1
 10
1.61
 20
960.131
 11
2.415
 21
960.0842
 72
    1
 10
2.415
 20
960.0842
 11
3.22
 21
960.0373
 72
    1
 10
3.22
 20
960.0373
 11
4.024
 21
959.9905
 72
    1
 10
4.024
 20
959.9905
 11
4.829
 21
959.9435999999999
 72
    1
 10
4.829
 20
959.9435999999999
 11
5.634
 21
959.8968
 72
    1
 10
5.634
 20
959.8968
 11
6.439
 21
959.8499
 72
    1
 10
6.439
 20
959.8499
 11
7.244
 21
959.8031
 72
    1
 10
7.244
 20
959.8031
 11
8.048999999999999
 21
959.7562
 72
    1
 10
8.048999999999999
 20
959.7562
 11
8.853999999999999
 21
959.7094
 72
    1
 10
8.853999999999999
 20
959.7094
 11
9.659000000000001
 21
959.6625
 72
    1
 10
9.659000000000001
 20
959.6625
 11
10.464
 21
959.6156
 72
    1
 10
10.464
 20
959.6156
 11
11.268
 21
959.5688
 72
    1
 10
11.268
 20
959.5688
 11
12.073
 21
959.5219
 72
    1
 10
12.073
 20
959.5219
 11
12.878
 21
959.4751
 72
    1
 10
12.878
 20
959.4751
 11
13.683
 21
959.4281999999999
 72
    1
 10
13.683
 20
959.4281999999999
 11
14.488
 21
959.3814
 72
    1
 10
14.488
 20
959.3814
 11
15.293
 21
959.3345
 72
    1
 10
15.293
 20
959.3345
 11
16.098
 21
959.2877
 72
    1
 10
16.098
 20
959.2877
 11
16.903
 21
959.2408
 72
    1
 10
16.903
 20
959.2408
 11
17.708
 21
959.194
 72
    1
 10
17.708
 20
959.194
 11
18.513
 21
959.1471
 72
    1
 10
18.513
 20
959.1471
 11
19.317
 21
959.1002999999999
 72
    1
 10
19.317
 20
959.1002999999999
 11
20.122
 21
959.0534
 72
    1
 10
20.122
 20
959.0534
 11
20.927
 21
959.0065
 72
    1
 10
20.927
 20
959.0065
 11
21.732
 21
958.9597
 72
    1
 10
21.732
 20
958.9597
 11
22.537
 21
958.9127999999999
 72
    1
 10
22.537
 20
958.9127999999999
 11
23.342
 21
958.866
 72
    1
 10
23.342
 20
958.866
 11
24.147
 21
958.8191
 72
    1
 10
24.147
 20
958.8191
 11
24.952
 21
958.7723
 72
    1
 10
24.952
 20
958.7723
 11
25.757
 21
958.7254
 72
    1
 10
25.757
 20
958.7254
 11
26.561
 21
958.6786
 72
    1
 10
26.561
 20
958.6786
 11
27.366
 21
958.6317
 72
    1
 10
27.366
 20
958.6317
 11
28.171
 21
958.5848999999999
 72
    1
 10
28.171
 20
958.5848999999999
 11
28.976
 21
958.538
 72
    1
 10
28.976
 20
958.538
 11
29.781
 21
958.4912
 72
    1
 10
29.781
 20
958.4912
 11
30.586
 21
958.4443
 72
    1
 10
30.586
 20
958.4443
 11
31.391
 21
958.3975
 72
    1
 10
31.391
 20
958.3975
 11
32.196
 21
958.3506
 72
    1
 10
32.196
 20
958.3506
 11
33.001
 21
958.3037
 72
    1
 10
33.001
 20
958.3037
 11
33.805
 21
958.2569
 72
    1
 10
33.805
 20
958.2569
 11
34.61
 21
958.21
 72
    1
 10
34.61
 20
958.21
 11
35.415
 21
958.1632
 72
    1
 10
35.415
 20
958.1632
 11
36.22
 21
958.1163
 72
    1
 10
36.22
 20
958.1163
 11
37.025
 21
958.0694999999999
 72
    1
 10
37.025
 20
958.0694999999999
 11
37.83
 21
958.0226
 72
    1
 10
37.83
 20
958.0226
 11
38.635
 21
957.9758
 72
    1
 10
38.635
 20
957.9758
 11
39.44
 21
957.9289
 72
    1
 10
39.44
 20
957.9289
 11
40.245
 21
957.8821
 72
    1
 10
40.245
 20
957.8821
 11
41.049
 21
957.7515
 72
    1
 10
41.049
 20
957.7515
 11
41.854
 21
957.6172
 72
    1
 10
41.854
 20
957.6172
 11
42.659
 21
957.4828
 72
    1
 10
42.659
 20
957.4828
 11
43.464
 21
957.3484
 72
    1
 10
43.464
 20
957.3484
 11
44.269
 21
957.2140000000001
 72
    1
 10
44.269
 20
957.2140000000001
 11
45.074
 21
957.0797
 72
    1
 10
45.074
 20
957.0797
 11
45.879
 21
956.9453
 72
    1
 10
45.879
 20
956.9453
 11
46.684
 21
956.8108999999999
 72
    1
 10
46.684
 20
956.8108999999999
 11
47.489
 21
956.6765
 72
    1
 10
47.489
 20
956.6765
 11
48.294
 21
956.5422
 72
    1
 10
48.294
 20
956.5422
 11
49.098
 21
956.4078
 72
    1
 10
49.098
 20
956.4078
 11
49.903
 21
956.2734
 72
    1
 10
49.903
 20
956.2734
 11
50.708
 21
956.139
 72
    1
 10
50.708
 20
956.139
 11
51.513
 21
956.0046
 72
    1
 10
51.513
 20
956.0046
 11
52.318
 21
955.8703
 72
    1
 10
52.318
 20
955.8703
 11
53.123
 21
955.7359
 72
    1
 10
53.123
 20
955.7359
 11
53.928
 21
955.6015
 72
    1
 10
53.928
 20
955.6015
 11
54.733
 21
955.4671
 72
    1
 10
54.733
 20
955.4671
 11
55.538
 21
955.3328
 72
    1
 10
55.538
 20
955.3328
 11
56.342
 21
955.1984
 72
    1
 10
56.342
 20
955.1984
 11
57.147
 21
955.064
 72
    1
 10
57.147
 20
955.064
 11
57.952
 21
954.9296000000001
 72
    1
 10
57.952
 20
954.9296000000001
 11
58.757
 21
954.7953
 72
    1
 10
58.757
 20
954.7953
 11
59.562
 21
954.6609
 72
    1
 10
59.562
 20
954.6609
 11
60.367
 21
954.5265000000001
 72
    1
 10
60.367
 20
954.5265000000001
 11
61.172
 21
954.3921
 72
    1
 10
61.172
 20
954.3921
 11
61.977
 21
954.2578
 72
    1
 10
61.977
 20
954.2578
 11
62.782
 21
954.1233999999999
 72
    1
 10
62.782
 20
954.1233999999999
 11
63.586
 21
953.989
 72
    1
 10
63.586
 20
953.989
 11
64.39100000000001
 21
953.8546
 72
    1
 10
64.39100000000001
 20
953.8546
 11
65.196
 21
953.7203
 72
    1
 10
65.196
 20
953.7203
 11
66.001
 21
953.5859
 72
    1
 10
66.001
 20
953.5859
 11
66.806
 21
953.4515
 72
    1
 10
66.806
 20
953.4515
 11
67.611
 21
953.3171
 72
    1
 10
67.611
 20
953.3171
 11
68.416
 21
953.1828
 72
    1
 10
68.416
 20
953.1828
 11
69.221
 21
953.0484
 72
    1
 10
69.221
 20
953.0484
 11
70.026
 21
952.896
 72
    1
 10
70.026
 20
952.896
 11
70.83
 21
952.6944999999999
 72
    1
 10
70.83
 20
952.6944999999999
 11
71.63500000000001
 21
952.4931
 72
    1
 10
71.63500000000001
 20
952.4931
 11
72.44
 21
952.2916
 72
    1
 10
72.44
 20
952.2916
 11
73.245
 21
952.0901
 72
    1
 10
73.245
 20
952.0901
 11
74.05
 21
951.8886
 72
    1
 10
74.05
 20
951.8886
 11
74.855
 21
951.6871
 72
    1
 10
74.855
 20
951.6871
 11
75.66
 21
951.4856
 72
    1
 10
75.66
 20
951.4856
 11
76.465
 21
951.2841
 72
    1
 10
76.465
 20
951.2841
 11
77.27
 21
951.0826
 72
    1
 10
77.27
 20
951.0826
 11
78.075
 21
950.8812
 72
    1
 10
78.075
 20
950.8812
 11
78.879
 21
950.6797
 72
    1
 10
78.879
 20
950.6797
 11
79.684
 21
950.4782
 72
    1
 10
79.684
 20
950.4782
 11
80.489
 21
950.2767
 72
    1
 10
80.489
 20
950.2767
 11
81.294
 21
950.0752
 72
    1
 10
81.294
 20
950.0752
 11
82.099
 21
949.8737
 72
    1
 10
82.099
 20
949.8737
 11
82.904
 21
949.6722
 72
    1
 10
82.904
 20
949.6722
 11
83.709
 21
949.4707
 72
    1
 10
83.709
 20
949.4707
 11
84.514
 21
949.2692
 72
    1
 10
84.514
 20
949.2692
 11
85.319
 21
949.0678
 72
    1
 10
85.319
 20
949.0678
 11
86.123
 21
948.8663
 72
    1
 10
86.123
 20
948.8663
 11
86.928
 21
948.6648
 72
    1
 10
86.928
 20
948.6648
 11
87.733
 21
948.4633
 72
    1
 10
87.733
 20
948.4633
 11
88.538
 21
948.2618
 72
    1
 10
88.538
 20
948.2618
 11
89.343
 21
947.7966
 72
    1
 10
89.343
 20
947.7966
 11
90.148
 21
946.9921000000001
 72
    1
 10
90.148
 20
946.9921000000001
 11
90.953
 21
946.1867999999999
 72
    1
 10
90.953
 20
946.1867999999999
 11
91.758
 21
945.3819999999999
 72
    1
 10
91.758
 20
945.3819999999999
 11
92.563
 21
944.5771999999999
 72
    1
 10
92.563
 20
944.5771999999999
 11
93.367
 21
943.7719
 72
    1
 10
93.367
 20
943.7719
 11
94.172
 21
942.9668
 72
    1
 10
94.172
 20
942.9668
 11
94.977
 21
942.162
 72
    1
 10
94.977
 20
942.162
 11
95.782
 21
941.3568
 72
    1
 10
95.782
 20
941.3568
 11
96.587
 21
940.5531999999999
 72
    1
 10
96.587
 20
940.5531999999999
 11
97.392
 21
939.7479
 72
    1
 10
97.392
 20
939.7479
 11
98.197
 21
938.9426
 72
    1
 10
98.197
 20
938.9426
 11
99.002
 21
938.1383
 72
    1
 10
99.002
 20
938.1383
 11
98.197
 21
938.2503
 72
    1
 10
98.197
 20
938.2503
 11
97.392
 21
938.3326
 72
    1
 10
97.392
 20
938.3326
 11
96.587
 21
938.4149
 72
    1
 10
96.587
 20
938.4149
 11
95.782
 21
938.4972
 72
    1
 10
95.782
 20
938.4972
 11
94.977
 21
938.5795000000001
 72
    1
 10
94.977
 20
938.5795000000001
 11
94.172
 21
938.6618
 72
    1
 10
94.172
 20
938.6618
 11
93.367
 21
938.7441
 72
    1
 10
93.367
 20
938.7441
 11
92.563
 21
938.8264
 72
    1
 10
92.563
 20
938.8264
 11
91.758
 21
938.9087
 72
    1
 10
91.758
 20
938.9087
 11
90.953
 21
938.9909
 72
    1
 10
90.953
 20
938.9909
 11
90.148
 21
939.0732
 72
    1
 10
90.148
 20
939.0732
 11
89.343
 21
939.1555
 72
    1
 10
89.343
 20
939.1555
 11
88.538
 21
939.2378
 72
    1
 10
88.538
 20
939.2378
 11
87.733
 21
939.3201
 72
    1
 10
87.733
 20
939.3201
 11
86.928
 21
939.4023999999999
 72
    1
 10
86.928
 20
939.4023999999999
 11
86.123
 21
939.4847
 72
    1
 10
86.123
 20
939.4847
 11
85.319
 21
939.567
 72
    1
 10
85.319
 20
939.567
 11
84.514
 21
939.6493
 72
    1
 10
84.514
 20
939.6493
 11
83.709
 21
939.7316
 72
    1
 10
83.709
 20
939.7316
 11
82.904
 21
939.8139
 72
    1
 10
82.904
 20
939.8139
 11
82.099
 21
939.8962
 72
    1
 10
82.099
 20
939.8962
 11
81.294
 21
939.9785000000001
 72
    1
 10
81.294
 20
939.9785000000001
 11
80.489
 21
940.0608
 72
    1
 10
80.489
 20
940.0608
 11
79.684
 21
940.1627
 72
    1
 10
79.684
 20
940.1627
 11
78.879
 21
940.3150000000001
 72
    1
 10
78.879
 20
940.3150000000001
 11
78.075
 21
940.4674
 72
    1
 10
78.075
 20
940.4674
 11
77.27
 21
940.6197
 72
    1
 10
77.27
 20
940.6197
 11
76.465
 21
940.772
 72
    1
 10
76.465
 20
940.772
 11
75.66
 21
940.9243
 72
    1
 10
75.66
 20
940.9243
 11
74.855
 21
941.0766
 72
    1
 10
74.855
 20
941.0766
 11
74.05
 21
941.229
 72
    1
 10
74.05
 20
941.229
 11
73.245
 21
941.3813
 72
    1
 10
73.245
 20
941.3813
 11
72.44
 21
941.5336
 72
    1
 10
72.44
 20
941.5336
 11
71.63500000000001
 21
941.6858999999999
 72
    1
 10
71.63500000000001
 20
941.6858999999999
 11
70.83
 21
941.8382
 72
    1
 10
70.83
 20
941.8382
 11
70.026
 21
941.9906
 72
    1
 10
70.026
 20
941.9906
 11
69.221
 21
942.1429000000001
 72
    1
 10
69.221
 20
942.1429000000001
 11
68.416
 21
942.2952
 72
    1
 10
68.416
 20
942.2952
 11
67.611
 21
942.4475
 72
    1
 10
67.611
 20
942.4475
 11
66.806
 21
942.5998
 72
    1
 10
66.806
 20
942.5998
 11
66.001
 21
942.7522
 72
    1
 10
66.001
 20
942.7522
 11
65.196
 21
942.9045
 72
    1
 10
65.196
 20
942.9045
 11
64.39100000000001
 21
943.0568
 72
    1
 10
64.39100000000001
 20
943.0568
 11
63.586
 21
943.2091
 72
    1
 10
63.586
 20
943.2091
 11
62.782
 21
943.3615
 72
    1
 10
62.782
 20
943.3615
 11
61.977
 21
943.5137999999999
 72
    1
 10
61.977
 20
943.5137999999999
 11
61.172
 21
943.6661
 72
    1
 10
61.172
 20
943.6661
 11
60.367
 21
943.8184
 72
    1
 10
60.367
 20
943.8184
 11
59.562
 21
943.9707
 72
    1
 10
59.562
 20
943.9707
 11
58.757
 21
944.1231
 72
    1
 10
58.757
 20
944.1231
 11
57.952
 21
944.2754
 72
    1
 10
57.952
 20
944.2754
 11
57.147
 21
944.4277
 72
    1
 10
57.147
 20
944.4277
 11
56.342
 21
944.58
 72
    1
 10
56.342
 20
944.58
 11
55.538
 21
944.7323
 72
    1
 10
55.538
 20
944.7323
 11
54.733
 21
944.8847
 72
    1
 10
54.733
 20
944.8847
 11
53.928
 21
945.037
 72
    1
 10
53.928
 20
945.037
 11
53.123
 21
945.1893
 72
    1
 10
53.123
 20
945.1893
 11
52.318
 21
945.3416
 72
    1
 10
52.318
 20
945.3416
 11
51.513
 21
945.494
 72
    1
 10
51.513
 20
945.494
 11
50.708
 21
945.6463
 72
    1
 10
50.708
 20
945.6463
 11
49.903
 21
945.7986
 72
    1
 10
49.903
 20
945.7986
 11
49.098
 21
945.9509
 72
    1
 10
49.098
 20
945.9509
 11
48.294
 21
946.1032
 72
    1
 10
48.294
 20
946.1032
 11
47.489
 21
946.2556
 72
    1
 10
47.489
 20
946.2556
 11
46.684
 21
946.4079
 72
    1
 10
46.684
 20
946.4079
 11
45.879
 21
946.5602
 72
    1
 10
45.879
 20
946.5602
 11
45.074
 21
946.6180000000001
 72
    1
 10
45.074
 20
946.6180000000001
 11
44.269
 21
946.5959
 72
    1
 10
44.269
 20
946.5959
 11
43.464
 21
946.5737
 72
    1
 10
43.464
 20
946.5737
 11
42.659
 21
946.5516
 72
    1
 10
42.659
 20
946.5516
 11
41.854
 21
946.5294
 72
    1
 10
41.854
 20
946.5294
 11
41.049
 21
946.5073
 72
    1
 10
41.049
 20
946.5073
 11
40.245
 21
946.4851
 72
    1
 10
40.245
 20
946.4851
 11
39.44
 21
946.463
 72
    1
 10
39.44
 20
946.463
 11
38.635
 21
946.4408
 72
    1
 10
38.635
 20
946.4408
 11
37.83
 21
946.4186999999999
 72
    1
 10
37.83
 20
946.4186999999999
 11
37.025
 21
946.3964999999999
 72
    1
 10
37.025
 20
946.3964999999999
 11
36.22
 21
946.3744
 72
    1
 10
36.22
 20
946.3744
 11
35.415
 21
946.3522
 72
    1
 10
35.415
 20
946.3522
 11
34.61
 21
946.3301
 72
    1
 10
34.61
 20
946.3301
 11
33.805
 21
946.3079
 72
    1
 10
33.805
 20
946.3079
 11
33.001
 21
946.2858
 72
    1
 10
33.001
 20
946.2858
 11
32.196
 21
946.2636
 72
    1
 10
32.196
 20
946.2636
 11
31.391
 21
946.2415
 72
    1
 10
31.391
 20
946.2415
 11
30.586
 21
946.2193
 72
    1
 10
30.586
 20
946.2193
 11
29.781
 21
946.1972
 72
    1
 10
29.781
 20
946.1972
 11
28.976
 21
946.175
 72
    1
 10
28.976
 20
946.175
 11
28.171
 21
946.1529
 72
    1
 10
28.171
 20
946.1529
 11
27.366
 21
946.1307
 72
    1
 10
27.366
 20
946.1307
 11
26.561
 21
946.1086
 72
    1
 10
26.561
 20
946.1086
 11
25.757
 21
946.1180000000001
 72
    1
 10
25.757
 20
946.1180000000001
 11
24.952
 21
946.1473999999999
 72
    1
 10
24.952
 20
946.1473999999999
 11
24.147
 21
946.1767
 72
    1
 10
24.147
 20
946.1767
 11
23.342
 21
946.2061
 72
    1
 10
23.342
 20
946.2061
 11
22.537
 21
946.2354
 72
    1
 10
22.537
 20
946.2354
 11
21.732
 21
946.2648
 72
    1
 10
21.732
 20
946.2648
 11
20.927
 21
946.2941
 72
    1
 10
20.927
 20
946.2941
 11
20.122
 21
946.3235
 72
    1
 10
20.122
 20
946.3235
 11
19.317
 21
946.3528
 72
    1
 10
19.317
 20
946.3528
 11
18.513
 21
946.3822
 72
    1
 10
18.513
 20
946.3822
 11
17.708
 21
946.4115
 72
    1
 10
17.708
 20
946.4115
 11
16.903
 21
946.4409000000001
 72
    1
 10
16.903
 20
946.4409000000001
 11
16.098
 21
946.4703
 72
    1
 10
16.098
 20
946.4703
 11
15.293
 21
946.4996
 72
    1
 10
15.293
 20
946.4996
 11
14.488
 21
946.529
 72
    1
 10
14.488
 20
946.529
 11
13.683
 21
946.5583
 72
    1
 10
13.683
 20
946.5583
 11
12.878
 21
946.5877
 72
    1
 10
12.878
 20
946.5877
 11
12.073
 21
946.617
 72
    1
 10
12.073
 20
946.617
 11
11.268
 21
946.6464
 72
    1
 10
11.268
 20
946.6464
 11
10.464
 21
946.6757
 72
    1
 10
10.464
 20
946.6757
 11
9.659000000000001
 21
946.7051
 72
    1
 10
9.659000000000001
 20
946.7051
 11
8.853999999999999
 21
946.7345
 72
    1
 10
8.853999999999999
 20
946.7345
 11
8.048999999999999
 21
946.7637999999999
 72
    1
 10
8.048999999999999
 20
946.7637999999999
 11
7.244
 21
946.7932
 72
    1
 10
7.244
 20
946.7932
 11
6.439
 21
946.8225
 72
    1
 10
6.439
 20
946.8225
 11
5.634
 21
946.8519
 72
    1
 10
5.634
 20
946.8519
 11
4.829
 21
946.8812
 72
    1
 10
4.829
 20
946.8812
 11
4.024
 21
946.9106
 72
    1
 10
4.024
 20
946.9106
 11
3.22
 21
946.9399
 72
    1
 10
3.22
 20
946.9399
 11
2.415
 21
946.9693
 72
    1
 10
2.415
 20
946.9693
 11
1.61
 21
946.9987
 72
    1
 10
1.61
 20
946.9987
 11
0.805
 21
947.028
 72
    1
 10
0.805
 20
947.028
 11
0
 21
947.0574
 72
    1
 10
0
 20
947.0574
 11
0
 21
960.2247
 97
    0
 75
    0
 76
    1
 52
0
 41
0.8
 77
    0
 78
    0
 98
    0
  0
LWPOLYLINE
  5
68
100
AcDbEntity
  8
CONTORNO
  6
ByLayer
 62
  256
370
   35
100
AcDbPolyline
 90
  247
 70
    1
 43
0
 10
0
 20
960.2247
 10
0.805
 20
960.1779
 10
1.61
 20
960.131
 10
2.415
 20
960.0842
 10
3.22
 20
960.0373
 10
4.024
 20
959.9905
 10
4.829
 20
959.9435999999999
 10
5.634
 20
959.8968
 10
6.439
 20
959.8499
 10
7.244
 20
959.8031
 10
8.048999999999999
 20
959.7562
 10
8.853999999999999
 20
959.7094
 10
9.659000000000001
 20
959.6625
 10
10.464
 20
959.6156
 10
11.268
 20
959.5688
 10
12.073
 20
959.5219
 10
12.878
 20
959.4751
 10
13.683
 20
959.4281999999999
 10
14.488
 20
959.3814
 10
15.293
 20
959.3345
 10
16.098
 20
959.2877
 10
16.903
 20
959.2408
 10
17.708
 20
959.194
 10
18.513
 20
959.1471
 10
19.317
 20
959.1002999999999
 10
20.122
 20
959.0534
 10
20.927
 20
959.0065
 10
21.732
 20
958.9597
 10
22.537
 20
958.9127999999999
 10
23.342
 20
958.866
 10
24.147
 20
958.8191
 10
24.952
 20
958.7723
 10
25.757
 20
958.7254
 10
26.561
 20
958.6786
 10
27.366
 20
958.6317
 10
28.171
 20
958.5848999999999
 10
28.976
 20
958.538
 10
29.781
 20
958.4912
 10
30.586
 20
958.4443
 10
31.391
 20
958.3975
 10
32.196
 20
958.3506
 10
33.001
 20
958.3037
 10
33.805
 20
958.2569
 10
34.61
 20
958.21
 10
35.415
 20
958.1632
 10
36.22
 20
958.1163
 10
37.025
 20
958.0694999999999
 10
37.83
 20
958.0226
 10
38.635
 20
957.9758
 10
39.44
 20
957.9289
 10
40.245
 20
957.8821
 10
41.049
 20
957.7515
 10
41.854
 20
957.6172
 10
42.659
 20
957.4828
 10
43.464
 20
957.3484
 10
44.269
 20
957.2140000000001
 10
45.074
 20
957.0797
 10
45.879
 20
956.9453
 10
46.684
 20
956.8108999999999
 10
47.489
 20
956.6765
 10
48.294
 20
956.5422
 10
49.098
 20
956.4078
 10
49.903
 20
956.2734
 10
50.708
 20
956.139
 10
51.513
 20
956.0046
 10
52.318
 20
955.8703
 10
53.123
 20
955.7359
 10
53.928
 20
955.6015
 10
54.733
 20
955.4671
 10
55.538
 20
955.3328
 10
56.342
 20
955.1984
 10
57.147
 20
955.064
 10
57.952
 20
954.9296000000001
 10
58.757
 20
954.7953
 10
59.562
 20
954.6609
 10
60.367
 20
954.5265000000001
 10
61.172
 20
954.3921
 10
61.977
 20
954.2578
 10
62.782
 20
954.1233999999999
 10
63.586
 20
953.989
 10
64.39100000000001
 20
953.8546
 10
65.196
 20
953.7203
 10
66.001
 20
953.5859
 10
66.806
 20
953.4515
 10
67.611
 20
953.3171
 10
68.416
 20
953.1828
 10
69.221
 20
953.0484
 10
70.026
 20
952.896
 10
70.83
 20
952.6944999999999
 10
71.63500000000001
 20
952.4931
 10
72.44
 20
952.2916
 10
73.245
 20
952.0901
 10
74.05
 20
951.8886
 10
74.855
 20
951.6871
 10
75.66
 20
951.4856
 10
76.465
 20
951.2841
 10
77.27
 20
951.0826
 10
78.075
 20
950.8812
 10
78.879
 20
950.6797
 10
79.684
 20
950.4782
 10
80.489
 20
950.2767
 10
81.294
 20
950.0752
 10
82.099
 20
949.8737
 10
82.904
 20
949.6722
 10
83.709
 20
949.4707
 10
84.514
 20
949.2692
 10
85.319
 20
949.0678
 10
86.123
 20
948.8663
 10
86.928
 20
948.6648
 10
87.733
 20
948.4633
 10
88.538
 20
948.2618
 10
89.343
 20
947.7966
 10
90.148
 20
946.9921000000001
 10
90.953
 20
946.1867999999999
 10
91.758
 20
945.3819999999999
 10
92.563
 20
944.5771999999999
 10
93.367
 20
943.7719
 10
94.172
 20
942.9668
 10
94.977
 20
942.162
 10
95.782
 20
941.3568
 10
96.587
 20
940.5531999999999
 10
97.392
 20
939.7479
 10
98.197
 20
938.9426
 10
99.002
 20
938.1383
 10
98.197
 20
938.2503
 10
97.392
 20
938.3326
 10
96.587
 20
938.4149
 10
95.782
 20
938.4972
 10
94.977
 20
938.5795000000001
 10
94.172
 20
938.6618
 10
93.367
 20
938.7441
 10
92.563
 20
938.8264
 10
91.758
 20
938.9087
 10
90.953
 20
938.9909
 10
90.148
 20
939.0732
 10
89.343
 20
939.1555
 10
88.538
 20
939.2378
 10
87.733
 20
939.3201
 10
86.928
 20
939.4023999999999
 10
86.123
 20
939.4847
 10
85.319
 20
939.567
 10
84.514
 20
939.6493
 10
83.709
 20
939.7316
 10
82.904
 20
939.8139
 10
82.099
 20
939.8962
 10
81.294
 20
939.9785000000001
 10
80.489
 20
940.0608
 10
79.684
 20
940.1627
 10
78.879
 20
940.3150000000001
 10
78.075
 20
940.4674
 10
77.27
 20
940.6197
 10
76.465
 20
940.772
 10
75.66
 20
940.9243
 10
74.855
 20
941.0766
 10
74.05
 20
941.229
 10
73.245
 20
941.3813
 10
72.44
 20
941.5336
 10
71.63500000000001
 20
941.6858999999999
 10
70.83
 20
941.8382
 10
70.026
 20
941.9906
 10
69.221
 20
942.1429000000001
 10
68.416
 20
942.2952
 10
67.611
 20
942.4475
 10
66.806
 20
942.5998
 10
66.001
 20
942.7522
 10
65.196
 20
942.9045
 10
64.39100000000001
 20
943.0568
 10
63.586
 20
943.2091
 10
62.782
 20
943.3615
 10
61.977
 20
943.5137999999999
 10
61.172
 20
943.6661
 10
60.367
 20
943.8184
 10
59.562
 20
943.9707
 10
58.757
 20
944.1231
 10
57.952
 20
944.2754
 10
57.147
 20
944.4277
 10
56.342
 20
944.58
 10
55.538
 20
944.7323
 10
54.733
 20
944.8847
 10
53.928
 20
945.037
 10
53.123
 20
945.1893
 10
52.318
 20
945.3416
 10
51.513
 20
945.494
 10
50.708
 20
945.6463
 10
49.903
 20
945.7986
 10
49.098
 20
945.9509
 10
48.294
 20
946.1032
 10
47.489
 20
946.2556
 10
46.684
 20
946.4079
 10
45.879
 20
946.5602
 10
45.074
 20
946.6180000000001
 10
44.269
 20
946.5959
 10
43.464
 20
946.5737
 10
42.659
 20
946.5516
 10
41.854
 20
946.5294
 10
41.049
 20
946.5073
 10
40.245
 20
946.4851
 10
39.44
 20
946.463
 10
38.635
 20
946.4408
 10
37.83
 20
946.4186999999999
 10
37.025
 20
946.3964999999999
 10
36.22
 20
946.3744
 10
35.415
 20
946.3522
 10
34.61
 20
946.3301
 10
33.805
 20
946.3079
 10
33.001
 20
946.2858
 10
32.196
 20
946.2636
 10
31.391
 20
946.2415
 10
30.586
 20
946.2193
 10
29.781
 20
946.1972
 10
28.976
 20
946.175
 10
28.171
 20
946.1529
 10
27.366
 20
946.1307
 10
26.561
 20
946.1086
 10
25.757
 20
946.1180000000001
 10
24.952
 20
946.1473999999999
 10
24.147
 20
946.1767
 10
23.342
 20
946.2061
 10
22.537
 20
946.2354
 10
21.732
 20
946.2648
 10
20.927
 20
946.2941
 10
20.122
 20
946.3235
 10
19.317
 20
946.3528
 10
18.513
 20
946.3822
 10
17.708
 20
946.4115
 10
16.903
 20
946.4409000000001
 10
16.098
 20
946.4703
 10
15.293
 20
946.4996
 10
14.488
 20
946.529
 10
13.683
 20
946.5583
 10
12.878
 20
946.5877
 10
12.073
 20
946.617
 10
11.268
 20
946.6464
 10
10.464
 20
946.6757
 10
9.659000000000001
 20
946.7051
 10
8.853999999999999
 20
946.7345
 10
8.048999999999999
 20
946.7637999999999
 10
7.244
 20
946.7932
 10
6.439
 20
946.8225
 10
5.634
 20
946.8519
 10
4.829
 20
946.8812
 10
4.024
 20
946.9106
 10
3.22
 20
946.9399
 10
2.415
 20
946.9693
 10
1.61
 20
946.9987
 10
0.805
 20
947.028
 10
0
 20
947.0574
  0
HATCH
  5
69
100
AcDbEntity
  8
ESTRATO_VI
  6
ByLayer
 62
    7
370
   -1
100
AcDbHatch
 10
0
 20
0
 30
0
210
0
220
0
230
1
  2
EARTH
 70
    0
 71
    0
 91
    1
 92
    0
 93
  223
 72
    1
 10
0
 20
970.8390000000001
 11
0.805
 21
970.9266
 72
    1
 10
0.805
 20
970.9266
 11
1.61
 21
971.013
 72
    1
 10
1.61
 20
971.013
 11
2.415
 21
971.0794
 72
    1
 10
2.415
 20
971.0794
 11
3.22
 21
971.1239
 72
    1
 10
3.22
 20
971.1239
 11
4.024
 21
971.1683
 72
    1
 10
4.024
 20
971.1683
 11
4.829
 21
971.2118
 72
    1
 10
4.829
 20
971.2118
 11
5.634
 21
971.2563
 72
    1
 10
5.634
 20
971.2563
 11
6.439
 21
971.2998
 72
    1
 10
6.439
 20
971.2998
 11
7.244
 21
971.3442
 72
    1
 10
7.244
 20
971.3442
 11
8.048999999999999
 21
971.3878
 72
    1
 10
8.048999999999999
 20
971.3878
 11
8.853999999999999
 21
971.4322
 72
    1
 10
8.853999999999999
 20
971.4322
 11
9.659000000000001
 21
971.476
 72
    1
 10
9.659000000000001
 20
971.476
 11
10.464
 21
971.5201
 72
    1
 10
10.464
 20
971.5201
 11
11.268
 21
971.5848
 72
    1
 10
11.268
 20
971.5848
 11
12.073
 21
971.7017
 72
    1
 10
12.073
 20
971.7017
 11
12.878
 21
971.8273
 72
    1
 10
12.878
 20
971.8273
 11
13.683
 21
972.0029
 72
    1
 10
13.683
 20
972.0029
 11
14.488
 21
972.244
 72
    1
 10
14.488
 20
972.244
 11
15.293
 21
972.4913
 72
    1
 10
15.293
 20
972.4913
 11
16.098
 21
972.7388
 72
    1
 10
16.098
 20
972.7388
 11
16.903
 21
972.9869
 72
    1
 10
16.903
 20
972.9869
 11
17.708
 21
973.2263
 72
    1
 10
17.708
 20
973.2263
 11
18.513
 21
973.2975
 72
    1
 10
18.513
 20
973.2975
 11
19.317
 21
973.2147
 72
    1
 10
19.317
 20
973.2147
 11
20.122
 21
973.1313
 72
    1
 10
20.122
 20
973.1313
 11
20.927
 21
973.0483
 72
    1
 10
20.927
 20
973.0483
 11
21.732
 21
972.965
 72
    1
 10
21.732
 20
972.965
 11
22.537
 21
972.8818
 72
    1
 10
22.537
 20
972.8818
 11
23.342
 21
972.7981
 72
    1
 10
23.342
 20
972.7981
 11
24.147
 21
972.7154
 72
    1
 10
24.147
 20
972.7154
 11
24.952
 21
972.6317
 72
    1
 10
24.952
 20
972.6317
 11
25.757
 21
972.5134
 72
    1
 10
25.757
 20
972.5134
 11
26.561
 21
972.3477
 72
    1
 10
26.561
 20
972.3477
 11
27.366
 21
972.1818
 72
    1
 10
27.366
 20
972.1818
 11
28.171
 21
972.0159
 72
    1
 10
28.171
 20
972.0159
 11
28.976
 21
971.8502
 72
    1
 10
28.976
 20
971.8502
 11
29.781
 21
971.6843
 72
    1
 10
29.781
 20
971.6843
 11
30.586
 21
971.5193
 72
    1
 10
30.586
 20
971.5193
 11
31.391
 21
971.3735
 72
    1
 10
31.391
 20
971.3735
 11
32.196
 21
971.255
 72
    1
 10
32.196
 20
971.255
 11
33.001
 21
971.1078
 72
    1
 10
33.001
 20
971.1078
 11
33.805
 21
970.9415
 72
    1
 10
33.805
 20
970.9415
 11
34.61
 21
970.7361
 72
    1
 10
34.61
 20
970.7361
 11
35.415
 21
970.4226
 72
    1
 10
35.415
 20
970.4226
 11
36.22
 21
970.0841
 72
    1
 10
36.22
 20
970.0841
 11
37.025
 21
969.7452
 72
    1
 10
37.025
 20
969.7452
 11
37.83
 21
969.4056
 72
    1
 10
37.83
 20
969.4056
 11
38.635
 21
969.067
 72
    1
 10
38.635
 20
969.067
 11
39.44
 21
968.7271
 72
    1
 10
39.44
 20
968.7271
 11
40.245
 21
968.3881
 72
    1
 10
40.245
 20
968.3881
 11
41.049
 21
968.0488
 72
    1
 10
41.049
 20
968.0488
 11
41.854
 21
967.7089
 72
    1
 10
41.854
 20
967.7089
 11
42.659
 21
967.552
 72
    1
 10
42.659
 20
967.552
 11
43.464
 21
967.5694999999999
 72
    1
 10
43.464
 20
967.5694999999999
 11
44.269
 21
967.6097
 72
    1
 10
44.269
 20
967.6097
 11
45.074
 21
967.651
 72
    1
 10
45.074
 20
967.651
 11
45.879
 21
967.6759
 72
    1
 10
45.879
 20
967.6759
 11
46.684
 21
967.564
 72
    1
 10
46.684
 20
967.564
 11
47.489
 21
967.3692
 72
    1
 10
47.489
 20
967.3692
 11
48.294
 21
967.1743
 72
    1
 10
48.294
 20
967.1743
 11
49.098
 21
966.9797
 72
    1
 10
49.098
 20
966.9797
 11
49.903
 21
966.7847
 72
    1
 10
49.903
 20
966.7847
 11
50.708
 21
966.5798
 72
    1
 10
50.708
 20
966.5798
 11
51.513
 21
966.3533
 72
    1
 10
51.513
 20
966.3533
 11
52.318
 21
966.1214
 72
    1
 10
52.318
 20
966.1214
 11
53.123
 21
965.8864
 72
    1
 10
53.123
 20
965.8864
 11
53.928
 21
965.5962
 72
    1
 10
53.928
 20
965.5962
 11
54.733
 21
965.2221
 72
    1
 10
54.733
 20
965.2221
 11
55.538
 21
964.853
 72
    1
 10
55.538
 20
964.853
 11
56.342
 21
964.6578
 72
    1
 10
56.342
 20
964.6578
 11
57.147
 21
964.491
 72
    1
 10
57.147
 20
964.491
 11
57.952
 21
964.3253
 72
    1
 10
57.952
 20
964.3253
 11
58.757
 21
964.1594
 72
    1
 10
58.757
 20
964.1594
 11
59.562
 21
963.9935
 72
    1
 10
59.562
 20
963.9935
 11
60.367
 21
963.8277
 72
    1
 10
60.367
 20
963.8277
 11
61.172
 21
963.6618999999999
 72
    1
 10
61.172
 20
963.6618999999999
 11
61.977
 21
963.496
 72
    1
 10
61.977
 20
963.496
 11
62.782
 21
963.2813
 72
    1
 10
62.782
 20
963.2813
 11
63.586
 21
963.0201
 72
    1
 10
63.586
 20
963.0201
 11
64.39100000000001
 21
962.7184
 72
    1
 10
64.39100000000001
 20
962.7184
 11
65.196
 21
962.3777
 72
    1
 10
65.196
 20
962.3777
 11
66.001
 21
962.054
 72
    1
 10
66.001
 20
962.054
 11
66.806
 21
961.7296
 72
    1
 10
66.806
 20
961.7296
 11
67.611
 21
961.4041
 72
    1
 10
67.611
 20
961.4041
 11
68.416
 21
961.0717
 72
    1
 10
68.416
 20
961.0717
 11
69.221
 21
960.7403
 72
    1
 10
69.221
 20
960.7403
 11
70.026
 21
960.3826
 72
    1
 10
70.026
 20
960.3826
 11
70.83
 21
960.0293
 72
    1
 10
70.83
 20
960.0293
 11
71.63500000000001
 21
959.6738
 72
    1
 10
71.63500000000001
 20
959.6738
 11
72.44
 21
959.3181
 72
    1
 10
72.44
 20
959.3181
 11
73.245
 21
958.9632
 72
    1
 10
73.245
 20
958.9632
 11
74.05
 21
958.6076
 72
    1
 10
74.05
 20
958.6076
 11
74.855
 21
958.2517
 72
    1
 10
74.855
 20
958.2517
 11
75.66
 21
957.8957
 72
    1
 10
75.66
 20
957.8957
 11
76.465
 21
957.5069
 72
    1
 10
76.465
 20
957.5069
 11
77.27
 21
957.0904
 72
    1
 10
77.27
 20
957.0904
 11
78.075
 21
956.6648
 72
    1
 10
78.075
 20
956.6648
 11
78.879
 21
956.2264
 72
    1
 10
78.879
 20
956.2264
 11
79.684
 21
955.785
 72
    1
 10
79.684
 20
955.785
 11
80.489
 21
955.3416999999999
 72
    1
 10
80.489
 20
955.3416999999999
 11
81.294
 21
954.8961
 72
    1
 10
81.294
 20
954.8961
 11
82.099
 21
954.45
 72
    1
 10
82.099
 20
954.45
 11
82.904
 21
954.0042
 72
    1
 10
82.904
 20
954.0042
 11
83.709
 21
953.427
 72
    1
 10
83.709
 20
953.427
 11
84.514
 21
952.6267
 72
    1
 10
84.514
 20
952.6267
 11
85.319
 21
951.822
 72
    1
 10
85.319
 20
951.822
 11
86.123
 21
951.0171
 72
    1
 10
86.123
 20
951.0171
 11
86.928
 21
950.2115
 72
    1
 10
86.928
 20
950.2115
 11
87.733
 21
949.4072
 72
    1
 10
87.733
 20
949.4072
 11
88.538
 21
948.6019
 72
    1
 10
88.538
 20
948.6019
 11
89.343
 21
947.7966
 72
    1
 10
89.343
 20
947.7966
 11
88.538
 21
948.2618
 72
    1
 10
88.538
 20
948.2618
 11
87.733
 21
948.4633
 72
    1
 10
87.733
 20
948.4633
 11
86.928
 21
948.6648
 72
    1
 10
86.928
 20
948.6648
 11
86.123
 21
948.8663
 72
    1
 10
86.123
 20
948.8663
 11
85.319
 21
949.0678
 72
    1
 10
85.319
 20
949.0678
 11
84.514
 21
949.2692
 72
    1
 10
84.514
 20
949.2692
 11
83.709
 21
949.4707
 72
    1
 10
83.709
 20
949.4707
 11
82.904
 21
949.6722
 72
    1
 10
82.904
 20
949.6722
 11
82.099
 21
949.8737
 72
    1
 10
82.099
 20
949.8737
 11
81.294
 21
950.0752
 72
    1
 10
81.294
 20
950.0752
 11
80.489
 21
950.2767
 72
    1
 10
80.489
 20
950.2767
 11
79.684
 21
950.4782
 72
    1
 10
79.684
 20
950.4782
 11
78.879
 21
950.6797
 72
    1
 10
78.879
 20
950.6797
 11
78.075
 21
950.8812
 72
    1
 10
78.075
 20
950.8812
 11
77.27
 21
951.0826
 72
    1
 10
77.27
 20
951.0826
 11
76.465
 21
951.2841
 72
    1
 10
76.465
 20
951.2841
 11
75.66
 21
951.4856
 72
    1
 10
75.66
 20
951.4856
 11
74.855
 21
951.6871
 72
    1
 10
74.855
 20
951.6871
 11
74.05
 21
951.8886
 72
    1
 10
74.05
 20
951.8886
 11
73.245
 21
952.0901
 72
    1
 10
73.245
 20
952.0901
 11
72.44
 21
952.2916
 72
    1
 10
72.44
 20
952.2916
 11
71.63500000000001
 21
952.4931
 72
    1
 10
71.63500000000001
 20
952.4931
 11
70.83
 21
952.6944999999999
 72
    1
 10
70.83
 20
952.6944999999999
 11
70.026
 21
952.896
 72
    1
 10
70.026
 20
952.896
 11
69.221
 21
953.0484
 72
    1
 10
69.221
 20
953.0484
 11
68.416
 21
953.1828
 72
    1
 10
68.416
 20
953.1828
 11
67.611
 21
953.3171
 72
    1
 10
67.611
 20
953.3171
 11
66.806
 21
953.4515
 72
    1
 10
66.806
 20
953.4515
 11
66.001
 21
953.5859
 72
    1
 10
66.001
 20
953.5859
 11
65.196
 21
953.7203
 72
    1
 10
65.196
 20
953.7203
 11
64.39100000000001
 21
953.8546
 72
    1
 10
64.39100000000001
 20
953.8546
 11
63.586
 21
953.989
 72
    1
 10
63.586
 20
953.989
 11
62.782
 21
954.1233999999999
 72
    1
 10
62.782
 20
954.1233999999999
 11
61.977
 21
954.2578
 72
    1
 10
61.977
 20
954.2578
 11
61.172
 21
954.3921
 72
    1
 10
61.172
 20
954.3921
 11
60.367
 21
954.5265000000001
 72
    1
 10
60.367
 20
954.5265000000001
 11
59.562
 21
954.6609
 72
    1
 10
59.562
 20
954.6609
 11
58.757
 21
954.7953
 72
    1
 10
58.757
 20
954.7953
 11
57.952
 21
954.9296000000001
 72
    1
 10
57.952
 20
954.9296000000001
 11
57.147
 21
955.064
 72
    1
 10
57.147
 20
955.064
 11
56.342
 21
955.1984
 72
    1
 10
56.342
 20
955.1984
 11
55.538
 21
955.3328
 72
    1
 10
55.538
 20
955.3328
 11
54.733
 21
955.4671
 72
    1
 10
54.733
 20
955.4671
 11
53.928
 21
955.6015
 72
    1
 10
53.928
 20
955.6015
 11
53.123
 21
955.7359
 72
    1
 10
53.123
 20
955.7359
 11
52.318
 21
955.8703
 72
    1
 10
52.318
 20
955.8703
 11
51.513
 21
956.0046
 72
    1
 10
51.513
 20
956.0046
 11
50.708
 21
956.139
 72
    1
 10
50.708
 20
956.139
 11
49.903
 21
956.2734
 72
    1
 10
49.903
 20
956.2734
 11
49.098
 21
956.4078
 72
    1
 10
49.098
 20
956.4078
 11
48.294
 21
956.5422
 72
    1
 10
48.294
 20
956.5422
 11
47.489
 21
956.6765
 72
    1
 10
47.489
 20
956.6765
 11
46.684
 21
956.8108999999999
 72
    1
 10
46.684
 20
956.8108999999999
 11
45.879
 21
956.9453
 72
    1
 10
45.879
 20
956.9453
 11
45.074
 21
957.0797
 72
    1
 10
45.074
 20
957.0797
 11
44.269
 21
957.2140000000001
 72
    1
 10
44.269
 20
957.2140000000001
 11
43.464
 21
957.3484
 72
    1
 10
43.464
 20
957.3484
 11
42.659
 21
957.4828
 72
    1
 10
42.659
 20
957.4828
 11
41.854
 21
957.6172
 72
    1
 10
41.854
 20
957.6172
 11
41.049
 21
957.7515
 72
    1
 10
41.049
 20
957.7515
 11
40.245
 21
957.8821
 72
    1
 10
40.245
 20
957.8821
 11
39.44
 21
957.9289
 72
    1
 10
39.44
 20
957.9289
 11
38.635
 21
957.9758
 72
    1
 10
38.635
 20
957.9758
 11
37.83
 21
958.0226
 72
    1
 10
37.83
 20
958.0226
 11
37.025
 21
958.0694999999999
 72
    1
 10
37.025
 20
958.0694999999999
 11
36.22
 21
958.1163
 72
    1
 10
36.22
 20
958.1163
 11
35.415
 21
958.1632
 72
    1
 10
35.415
 20
958.1632
 11
34.61
 21
958.21
 72
    1
 10
34.61
 20
958.21
 11
33.805
 21
958.2569
 72
    1
 10
33.805
 20
958.2569
 11
33.001
 21
958.3037
 72
    1
 10
33.001
 20
958.3037
 11
32.196
 21
958.3506
 72
    1
 10
32.196
 20
958.3506
 11
31.391
 21
958.3975
 72
    1
 10
31.391
 20
958.3975
 11
30.586
 21
958.4443
 72
    1
 10
30.586
 20
958.4443
 11
29.781
 21
958.4912
 72
    1
 10
29.781
 20
958.4912
 11
28.976
 21
958.538
 72
    1
 10
28.976
 20
958.538
 11
28.171
 21
958.5848999999999
 72
    1
 10
28.171
 20
958.5848999999999
 11
27.366
 21
958.6317
 72
    1
 10
27.366
 20
958.6317
 11
26.561
 21
958.6786
 72
    1
 10
26.561
 20
958.6786
 11
25.757
 21
958.7254
 72
    1
 10
25.757
 20
958.7254
 11
24.952
 21
958.7723
 72
    1
 10
24.952
 20
958.7723
 11
24.147
 21
958.8191
 72
    1
 10
24.147
 20
958.8191
 11
23.342
 21
958.866
 72
    1
 10
23.342
 20
958.866
 11
22.537
 21
958.9127999999999
 72
    1
 10
22.537
 20
958.9127999999999
 11
21.732
 21
958.9597
 72
    1
 10
21.732
 20
958.9597
 11
20.927
 21
959.0065
 72
    1
 10
20.927
 20
959.0065
 11
20.122
 21
959.0534
 72
    1
 10
20.122
 20
959.0534
 11
19.317
 21
959.1002999999999
 72
    1
 10
19.317
 20
959.1002999999999
 11
18.513
 21
959.1471
 72
    1
 10
18.513
 20
959.1471
 11
17.708
 21
959.194
 72
    1
 10
17.708
 20
959.194
 11
16.903
 21
959.2408
 72
    1
 10
16.903
 20
959.2408
 11
16.098
 21
959.2877
 72
    1
 10
16.098
 20
959.2877
 11
15.293
 21
959.3345
 72
    1
 10
15.293
 20
959.3345
 11
14.488
 21
959.3814
 72
    1
 10
14.488
 20
959.3814
 11
13.683
 21
959.4281999999999
 72
    1
 10
13.683
 20
959.4281999999999
 11
12.878
 21
959.4751
 72
    1
 10
12.878
 20
959.4751
 11
12.073
 21
959.5219
 72
    1
 10
12.073
 20
959.5219
 11
11.268
 21
959.5688
 72
    1
 10
11.268
 20
959.5688
 11
10.464
 21
959.6156
 72
    1
 10
10.464
 20
959.6156
 11
9.659000000000001
 21
959.6625
 72
    1
 10
9.659000000000001
 20
959.6625
 11
8.853999999999999
 21
959.7094
 72
    1
 10
8.853999999999999
 20
959.7094
 11
8.048999999999999
 21
959.7562
 72
    1
 10
8.048999999999999
 20
959.7562
 11
7.244
 21
959.8031
 72
    1
 10
7.244
 20
959.8031
 11
6.439
 21
959.8499
 72
    1
 10
6.439
 20
959.8499
 11
5.634
 21
959.8968
 72
    1
 10
5.634
 20
959.8968
 11
4.829
 21
959.9435999999999
 72
    1
 10
4.829
 20
959.9435999999999
 11
4.024
 21
959.9905
 72
    1
 10
4.024
 20
959.9905
 11
3.22
 21
960.0373
 72
    1
 10
3.22
 20
960.0373
 11
2.415
 21
960.0842
 72
    1
 10
2.415
 20
960.0842
 11
1.61
 21
960.131
 72
    1
 10
1.61
 20
960.131
 11
0.805
 21
960.1779
 72
    1
 10
0.805
 20
960.1779
 11
0
 21
960.2247
 72
    1
 10
0
 20
960.2247
 11
0
 21
970.8390000000001
 97
    0
 75
    0
 76
    1
 52
0
 41
0.5
 77
    0
 78
    0
 98
    0
  0
LWPOLYLINE
  5
6A
100
AcDbEntity
  8
CONTORNO
  6
ByLayer
 62
  256
370
   35
100
AcDbPolyline
 90
  223
 70
    1
 43
0
 10
0
 20
970.8390000000001
 10
0.805
 20
970.9266
 10
1.61
 20
971.013
 10
2.415
 20
971.0794
 10
3.22
 20
971.1239
 10
4.024
 20
971.1683
 10
4.829
 20
971.2118
 10
5.634
 20
971.2563
 10
6.439
 20
971.2998
 10
7.244
 20
971.3442
 10
8.048999999999999
 20
971.3878
 10
8.853999999999999
 20
971.4322
 10
9.659000000000001
 20
971.476
 10
10.464
 20
971.5201
 10
11.268
 20
971.5848
 10
12.073
 20
971.7017
 10
12.878
 20
971.8273
 10
13.683
 20
972.0029
 10
14.488
 20
972.244
 10
15.293
 20
972.4913
 10
16.098
 20
972.7388
 10
16.903
 20
972.9869
 10
17.708
 20
973.2263
 10
18.513
 20
973.2975
 10
19.317
 20
973.2147
 10
20.122
 20
973.1313
 10
20.927
 20
973.0483
 10
21.732
 20
972.965
 10
22.537
 20
972.8818
 10
23.342
 20
972.7981
 10
24.147
 20
972.7154
 10
24.952
 20
972.6317
 10
25.757
 20
972.5134
 10
26.561
 20
972.3477
 10
27.366
 20
972.1818
 10
28.171
 20
972.0159
 10
28.976
 20
971.8502
 10
29.781
 20
971.6843
 10
30.586
 20
971.5193
 10
31.391
 20
971.3735
 10
32.196
 20
971.255
 10
33.001
 20
971.1078
 10
33.805
 20
970.9415
 10
34.61
 20
970.7361
 10
35.415
 20
970.4226
 10
36.22
 20
970.0841
 10
37.025
 20
969.7452
 10
37.83
 20
969.4056
 10
38.635
 20
969.067
 10
39.44
 20
968.7271
 10
40.245
 20
968.3881
 10
41.049
 20
968.0488
 10
41.854
 20
967.7089
 10
42.659
 20
967.552
 10
43.464
 20
967.5694999999999
 10
44.269
 20
967.6097
 10
45.074
 20
967.651
 10
45.879
 20
967.6759
 10
46.684
 20
967.564
 10
47.489
 20
967.3692
 10
48.294
 20
967.1743
 10
49.098
 20
966.9797
 10
49.903
 20
966.7847
 10
50.708
 20
966.5798
 10
51.513
 20
966.3533
 10
52.318
 20
966.1214
 10
53.123
 20
965.8864
 10
53.928
 20
965.5962
 10
54.733
 20
965.2221
 10
55.538
 20
964.853
 10
56.342
 20
964.6578
 10
57.147
 20
964.491
 10
57.952
 20
964.3253
 10
58.757
 20
964.1594
 10
59.562
 20
963.9935
 10
60.367
 20
963.8277
 10
61.172
 20
963.6618999999999
 10
61.977
 20
963.496
 10
62.782
 20
963.2813
 10
63.586
 20
963.0201
 10
64.39100000000001
 20
962.7184
 10
65.196
 20
962.3777
 10
66.001
 20
962.054
 10
66.806
 20
961.7296
 10
67.611
 20
961.4041
 10
68.416
 20
961.0717
 10
69.221
 20
960.7403
 10
70.026
 20
960.3826
 10
70.83
 20
960.0293
 10
71.63500000000001
 20
959.6738
 10
72.44
 20
959.3181
 10
73.245
 20
958.9632
 10
74.05
 20
958.6076
 10
74.855
 20
958.2517
 10
75.66
 20
957.8957
 10
76.465
 20
957.5069
 10
77.27
 20
957.0904
 10
78.075
 20
956.6648
 10
78.879
 20
956.2264
 10
79.684
 20
955.785
 10
80.489
 20
955.3416999999999
 10
81.294
 20
954.8961
 10
82.099
 20
954.45
 10
82.904
 20
954.0042
 10
83.709
 20
953.427
 10
84.514
 20
952.6267
 10
85.319
 20
951.822
 10
86.123
 20
951.0171
 10
86.928
 20
950.2115
 10
87.733
 20
949.4072
 10
88.538
 20
948.6019
 10
89.343
 20
947.7966
 10
88.538
 20
948.2618
 10
87.733
 20
948.4633
 10
86.928
 20
948.6648
 10
86.123
 20
948.8663
 10
85.319
 20
949.0678
 10
84.514
 20
949.2692
 10
83.709
 20
949.4707
 10
82.904
 20
949.6722
 10
82.099
 20
949.8737
 10
81.294
 20
950.0752
 10
80.489
 20
950.2767
 10
79.684
 20
950.4782
 10
78.879
 20
950.6797
 10
78.075
 20
950.8812
 10
77.27
 20
951.0826
 10
76.465
 20
951.2841
 10
75.66
 20
951.4856
 10
74.855
 20
951.6871
 10
74.05
 20
951.8886
 10
73.245
 20
952.0901
 10
72.44
 20
952.2916
 10
71.63500000000001
 20
952.4931
 10
70.83
 20
952.6944999999999
 10
70.026
 20
952.896
 10
69.221
 20
953.0484
 10
68.416
 20
953.1828
 10
67.611
 20
953.3171
 10
66.806
 20
953.4515
 10
66.001
 20
953.5859
 10
65.196
 20
953.7203
 10
64.39100000000001
 20
953.8546
 10
63.586
 20
953.989
 10
62.782
 20
954.1233999999999
 10
61.977
 20
954.2578
 10
61.172
 20
954.3921
 10
60.367
 20
954.5265000000001
 10
59.562
 20
954.6609
 10
58.757
 20
954.7953
 10
57.952
 20
954.9296000000001
 10
57.147
 20
955.064
 10
56.342
 20
955.1984
 10
55.538
 20
955.3328
 10
54.733
 20
955.4671
 10
53.928
 20
955.6015
 10
53.123
 20
955.7359
 10
52.318
 20
955.8703
 10
51.513
 20
956.0046
 10
50.708
 20
956.139
 10
49.903
 20
956.2734
 10
49.098
 20
956.4078
 10
48.294
 20
956.5422
 10
47.489
 20
956.6765
 10
46.684
 20
956.8108999999999
 10
45.879
 20
956.9453
 10
45.074
 20
957.0797
 10
44.269
 20
957.2140000000001
 10
43.464
 20
957.3484
 10
42.659
 20
957.4828
 10
41.854
 20
957.6172
 10
41.049
 20
957.7515
 10
40.245
 20
957.8821
 10
39.44
 20
957.9289
 10
38.635
 20
957.9758
 10
37.83
 20
958.0226
 10
37.025
 20
958.0694999999999
 10
36.22
 20
958.1163
 10
35.415
 20
958.1632
 10
34.61
 20
958.21
 10
33.805
 20
958.2569
 10
33.001
 20
958.3037
 10
32.196
 20
958.3506
 10
31.391
 20
958.3975
 10
30.586
 20
958.4443
 10
29.781
 20
958.4912
 10
28.976
 20
958.538
 10
28.171
 20
958.5848999999999
 10
27.366
 20
958.6317
 10
26.561
 20
958.6786
 10
25.757
 20
958.7254
 10
24.952
 20
958.7723
 10
24.147
 20
958.8191
 10
23.342
 20
958.866
 10
22.537
 20
958.9127999999999
 10
21.732
 20
958.9597
 10
20.927
 20
959.0065
 10
20.122
 20
959.0534
 10
19.317
 20
959.1002999999999
 10
18.513
 20
959.1471
 10
17.708
 20
959.194
 10
16.903
 20
959.2408
 10
16.098
 20
959.2877
 10
15.293
 20
959.3345
 10
14.488
 20
959.3814
 10
13.683
 20
959.4281999999999
 10
12.878
 20
959.4751
 10
12.073
 20
959.5219
 10
11.268
 20
959.5688
 10
10.464
 20
959.6156
 10
9.659000000000001
 20
959.6625
 10
8.853999999999999
 20
959.7094
 10
8.048999999999999
 20
959.7562
 10
7.244
 20
959.8031
 10
6.439
 20
959.8499
 10
5.634
 20
959.8968
 10
4.829
 20
959.9435999999999
 10
4.024
 20
959.9905
 10
3.22
 20
960.0373
 10
2.415
 20
960.0842
 10
1.61
 20
960.131
 10
0.805
 20
960.1779
 10
0
 20
960.2247
  0
LWPOLYLINE
  5
6B
100
AcDbEntity
  8
TERRENO
  6
ByLayer
 62
  256
370
   50
100
AcDbPolyline
 90
  201
 70
    0
 43
0
 10
0
 20
970.8390000000001
 10
0.805
 20
970.9266
 10
1.61
 20
971.013
 10
2.415
 20
971.0794
 10
3.22
 20
971.1239
 10
4.024
 20
971.1683
 10
4.829
 20
971.2118
 10
5.634
 20
971.2563
 10
6.439
 20
971.2998
 10
7.244
 20
971.3442
 10
8.048999999999999
 20
971.3878
 10
8.853999999999999
 20
971.4322
 10
9.659000000000001
 20
971.476
 10
10.464
 20
971.5201
 10
11.268
 20
971.5848
 10
12.073
 20
971.7017
 10
12.878
 20
971.8273
 10
13.683
 20
972.0029
 10
14.488
 20
972.244
 10
15.293
 20
972.4913
 10
16.098
 20
972.7388
 10
16.903
 20
972.9869
 10
17.708
 20
973.2263
 10
18.513
 20
973.2975
 10
19.317
 20
973.2147
 10
20.122
 20
973.1313
 10
20.927
 20
973.0483
 10
21.732
 20
972.965
 10
22.537
 20
972.8818
 10
23.342
 20
972.7981
 10
24.147
 20
972.7154
 10
24.952
 20
972.6317
 10
25.757
 20
972.5134
 10
26.561
 20
972.3477
 10
27.366
 20
972.1818
 10
28.171
 20
972.0159
 10
28.976
 20
971.8502
 10
29.781
 20
971.6843
 10
30.586
 20
971.5193
 10
31.391
 20
971.3735
 10
32.196
 20
971.255
 10
33.001
 20
971.1078
 10
33.805
 20
970.9415
 10
34.61
 20
970.7361
 10
35.415
 20
970.4226
 10
36.22
 20
970.0841
 10
37.025
 20
969.7452
 10
37.83
 20
969.4056
 10
38.635
 20
969.067
 10
39.44
 20
968.7271
 10
40.245
 20
968.3881
 10
41.049
 20
968.0488
 10
41.854
 20
967.7089
 10
42.659
 20
967.552
 10
43.464
 20
967.5694999999999
 10
44.269
 20
967.6097
 10
45.074
 20
967.651
 10
45.879
 20
967.6759
 10
46.684
 20
967.564
 10
47.489
 20
967.3692
 10
48.294
 20
967.1743
 10
49.098
 20
966.9797
 10
49.903
 20
966.7847
 10
50.708
 20
966.5798
 10
51.513
 20
966.3533
 10
52.318
 20
966.1214
 10
53.123
 20
965.8864
 10
53.928
 20
965.5962
 10
54.733
 20
965.2221
 10
55.538
 20
964.853
 10
56.342
 20
964.6578
 10
57.147
 20
964.491
 10
57.952
 20
964.3253
 10
58.757
 20
964.1594
 10
59.562
 20
963.9935
 10
60.367
 20
963.8277
 10
61.172
 20
963.6618999999999
 10
61.977
 20
963.496
 10
62.782
 20
963.2813
 10
63.586
 20
963.0201
 10
64.39100000000001
 20
962.7184
 10
65.196
 20
962.3777
 10
66.001
 20
962.054
 10
66.806
 20
961.7296
 10
67.611
 20
961.4041
 10
68.416
 20
961.0717
 10
69.221
 20
960.7403
 10
70.026
 20
960.3826
 10
70.83
 20
960.0293
 10
71.63500000000001
 20
959.6738
 10
72.44
 20
959.3181
 10
73.245
 20
958.9632
 10
74.05
 20
958.6076
 10
74.855
 20
958.2517
 10
75.66
 20
957.8957
 10
76.465
 20
957.5069
 10
77.27
 20
957.0904
 10
78.075
 20
956.6648
 10
78.879
 20
956.2264
 10
79.684
 20
955.785
 10
80.489
 20
955.3416999999999
 10
81.294
 20
954.8961
 10
82.099
 20
954.45
 10
82.904
 20
954.0042
 10
83.709
 20
953.427
 10
84.514
 20
952.6267
 10
85.319
 20
951.822
 10
86.123
 20
951.0171
 10
86.928
 20
950.2115
 10
87.733
 20
949.4072
 10
88.538
 20
948.6019
 10
89.343
 20
947.7966
 10
90.148
 20
946.9921000000001
 10
90.953
 20
946.1867999999999
 10
91.758
 20
945.3819999999999
 10
92.563
 20
944.5771999999999
 10
93.367
 20
943.7719
 10
94.172
 20
942.9668
 10
94.977
 20
942.162
 10
95.782
 20
941.3568
 10
96.587
 20
940.5531999999999
 10
97.392
 20
939.7479
 10
98.197
 20
938.9426
 10
99.002
 20
938.1383
 10
99.807
 20
937.3329
 10
100.612
 20
936.5596
 10
101.416
 20
936.2009
 10
102.221
 20
936.2012
 10
103.026
 20
936.2071
 10
103.831
 20
935.8315
 10
104.636
 20
935.0527
 10
105.441
 20
934.2483
 10
106.246
 20
933.443
 10
107.051
 20
932.6376
 10
107.856
 20
931.833
 10
108.66
 20
931.2897
 10
109.465
 20
931.2326
 10
110.27
 20
931.2471
 10
111.075
 20
930.8853
 10
111.88
 20
929.2582
 10
112.685
 20
927.4726000000001
 10
113.49
 20
925.4299999999999
 10
114.295
 20
925.3381000000001
 10
115.1
 20
925.3501
 10
115.904
 20
925.3646
 10
116.709
 20
925.3801
 10
117.514
 20
925.3945
 10
118.319
 20
925.409
 10
119.124
 20
925.4235
 10
119.929
 20
925.438
 10
120.734
 20
925.4525
 10
121.539
 20
925.467
 10
122.344
 20
925.4815
 10
123.148
 20
925.4897
 10
123.953
 20
925.4804
 10
124.758
 20
925.4675999999999
 10
125.563
 20
925.4536000000001
 10
126.368
 20
925.4391000000001
 10
127.173
 20
925.6301999999999
 10
127.978
 20
925.7488
 10
128.783
 20
925.2289
 10
129.588
 20
924.6932
 10
130.393
 20
924.1589
 10
131.197
 20
923.6233
 10
132.002
 20
923.0885
 10
132.807
 20
922.5806
 10
133.612
 20
922.2952
 10
134.417
 20
921.9255000000001
 10
135.222
 20
921.4841
 10
136.027
 20
921.0412
 10
136.832
 20
920.5993
 10
137.637
 20
920.1568
 10
138.441
 20
919.8271
 10
139.246
 20
919.9114
 10
140.051
 20
920.0665
 10
140.856
 20
920.222
 10
141.661
 20
920.3776
 10
142.466
 20
920.5321
 10
143.271
 20
920.6876999999999
 10
144.076
 20
920.8432
 10
144.881
 20
920.9986
 10
145.685
 20
921.1534
 10
146.49
 20
921.3089
 10
147.295
 20
921.4641
 10
148.1
 20
921.6191
 10
148.905
 20
921.7744
 10
149.71
 20
921.9296000000001
 10
150.515
 20
922.0848
 10
151.32
 20
922.2403
 10
152.125
 20
922.3952
 10
152.929
 20
922.5503
 10
153.734
 20
922.706
 10
154.539
 20
922.8607
 10
155.344
 20
923.0146
 10
156.149
 20
923.1374
 10
156.954
 20
923.2292
 10
157.759
 20
923.3214
 10
158.564
 20
923.4136999999999
 10
159.369
 20
923.5055
 10
160.174
 20
923.8347
 10
160.978
 20
924.443
  0
LWPOLYLINE
  5
6C
100
AcDbEntity
  8
NAF_CRITICO
  6
ByLayer
 62
  256
370
   35
100
AcDbPolyline
 90
  201
 70
    0
 43
0
 10
0
 20
963.2974999621781
 10
0.805
 20
963.297499901531
 10
1.61
 20
963.2974997118545
 10
2.415
 20
963.2974992041175
 10
3.22
 20
963.2974979397859
 10
4.024
 20
963.297494971622
 10
4.829
 20
963.297488361563
 10
5.634
 20
963.29747433336
 10
6.439
 20
963.2974458615167
 10
7.244
 20
963.297390449846
 10
8.048999999999999
 20
963.2972868399422
 10
8.853999999999999
 20
963.2971004500465
 10
9.659000000000001
 20
963.2967775192353
 10
10.464
 20
963.2962382475902
 10
11.268
 20
963.2953696703454
 10
12.073
 20
963.2940195147186
 10
12.878
 20
963.2919927267553
 10
13.683
 20
963.2890525376109
 10
14.488
 20
963.2849276823007
 10
15.293
 20
963.2793265860439
 10
16.098
 20
963.2719580447208
 10
16.903
 20
963.2625563871998
 10
17.708
 20
963.2509077143741
 10
18.513
 20
963.236873004332
 10
19.317
 20
963.2204039867705
 10
20.122
 20
963.2015488049813
 10
20.927
 20
963.1804463727906
 10
21.732
 20
963.1573105142404
 10
22.537
 20
963.1324068644844
 10
23.342
 20
963.1060266282589
 10
24.147
 20
963.0784614086747
 10
24.952
 20
963.0499825156743
 10
25.757
 20
963.0208267715765
 10
26.561
 20
962.9911892930286
 10
27.366
 20
962.9612224420588
 10
28.171
 20
962.9310393468425
 10
28.976
 20
962.90072014933
 10
29.781
 20
962.8703193428637
 10
30.586
 20
962.8398730405099
 10
31.391
 20
962.8094055828791
 10
32.196
 20
962.7789354172924
 10
33.001
 20
962.7484805819688
 10
33.805
 20
962.7180643781569
 10
34.61
 20
962.6877218970167
 10
35.415
 20
962.657507970885
 10
36.22
 20
962.6275068149861
 10
37.025
 20
962.5978430954475
 10
37.83
 20
962.5686934182636
 10
38.635
 20
962.5402963694822
 10
39.44
 20
962.5129584317398
 10
40.245
 20
962.4870526205106
 10
41.049
 20
962.4630068120478
 10
41.854
 20
962.4412796844249
 10
42.659
 20
962.4223239890024
 10
43.464
 20
962.4065392806157
 10
44.269
 20
962.3942187798568
 10
45.074
 20
962.3854970939764
 10
45.879
 20
962.3803064901649
 10
46.684
 20
962.3783489208549
 10
47.489
 20
962.3790890143862
 10
48.294
 20
962.381770094223
 10
49.098
 20
962.3854515691758
 10
49.903
 20
962.3890624474359
 10
50.708
 20
962.3914608612372
 10
51.513
 20
962.391492926736
 10
52.318
 20
962.3880387290916
 10
53.123
 20
962.3800357425192
 10
53.928
 20
962.3664706603797
 10
54.733
 20
962.3463389042072
 10
55.538
 20
962.3185716746975
 10
56.342
 20
962.2819395997068
 10
57.147
 20
962.2349482567353
 10
57.952
 20
962.1757544785669
 10
58.757
 20
962.1021334594469
 10
59.562
 20
962.011532551579
 10
60.367
 20
961.9012338350431
 10
61.172
 20
961.7686237559785
 10
61.977
 20
961.6115339466126
 10
62.782
 20
961.4285843440463
 10
63.586
 20
961.2194422799105
 10
64.39100000000001
 20
960.9849252350309
 10
65.196
 20
960.7269105465614
 10
66.001
 20
960.4480701493496
 10
66.806
 20
960.1515018364039
 10
67.611
 20
959.8403399498463
 10
68.416
 20
959.5174261065321
 10
69.221
 20
959.1850806452461
 10
70.026
 20
958.8449746855439
 10
70.83
 20
958.4980743628261
 10
71.63500000000001
 20
958.1446232551468
 10
72.44
 20
957.7841433141841
 10
73.245
 20
957.4154567727236
 10
74.05
 20
957.0367476172914
 10
74.855
 20
956.6456822099451
 10
75.66
 20
956.2395938313118
 10
76.465
 20
955.8157125706846
 10
77.27
 20
955.3714023947746
 10
78.075
 20
954.9043569473421
 10
78.879
 20
954.4127226101922
 10
79.684
 20
953.8951389726903
 10
80.489
 20
953.3507162752362
 10
81.294
 20
952.7789855970291
 10
82.099
 20
952.1798641388625
 10
82.904
 20
951.5536581825935
 10
83.709
 20
950.9011027951562
 10
84.514
 20
950.2234116147609
 10
85.319
 20
949.5223055933925
 10
86.123
 20
948.7999896723678
 10
86.928
 20
948.0590688407653
 10
87.733
 20
947.302410567544
 10
88.538
 20
946.5330040681378
 10
89.343
 20
945.7538091891948
 10
90.148
 20
944.9676768673544
 10
90.953
 20
944.1773267164905
 10
91.758
 20
943.3853974542048
 10
92.563
 20
942.5945524110772
 10
93.367
 20
941.8076067089459
 10
94.172
 20
941.027640572075
 10
94.977
 20
940.2580481627466
 10
95.782
 20
939.5024813961249
 10
96.587
 20
938.7646594850039
 10
97.392
 20
938.0480398210952
 10
98.197
 20
937.3553810546458
 10
99.002
 20
936.6383
 10
99.807
 20
935.8329
 10
100.612
 20
935.0596
 10
101.416
 20
934.7009
 10
102.221
 20
934.2480908704221
 10
103.026
 20
933.6738585440971
 10
103.831
 20
933.1017121308848
 10
104.636
 20
932.5252395471555
 10
105.441
 20
931.9387082835544
 10
106.246
 20
931.3374464437162
 10
107.051
 20
930.7181993319999
 10
107.856
 20
930.0795812286317
 10
108.66
 20
929.422691584774
 10
109.465
 20
928.7518298655074
 10
110.27
 20
928.075075416194
 10
111.075
 20
927.4043874025979
 10
111.88
 20
926.7549123521519
 10
112.685
 20
925.9726000000001
 10
113.49
 20
923.9299999999999
 10
114.295
 20
923.8381000000001
 10
115.1
 20
923.8501
 10
115.904
 20
923.8646
 10
116.709
 20
923.8801
 10
117.514
 20
923.8762001224328
 10
118.319
 20
923.7303707014863
 10
119.124
 20
923.6268726080041
 10
119.929
 20
923.5540591371197
 10
120.734
 20
923.5012566994898
 10
121.539
 20
923.4589587718958
 10
122.344
 20
923.4186908811186
 10
123.148
 20
923.3727574164732
 10
123.953
 20
923.3140382808429
 10
124.758
 20
923.2359344809777
 10
125.563
 20
923.1324904206072
 10
126.368
 20
922.9986887027829
 10
127.173
 20
922.830833010192
 10
127.978
 20
922.6268825848501
 10
128.783
 20
922.3868520406868
 10
129.588
 20
922.1129205055555
 10
130.393
 20
921.8094003910862
 10
131.197
 20
921.4825117369729
 10
132.002
 20
921.140017138384
 10
132.807
 20
920.7907588078795
 10
133.612
 20
920.4441641923319
 10
134.417
 20
920.1097580682693
 10
135.222
 20
919.796694422878
 10
136.027
 20
919.5133053569456
 10
136.832
 20
919.0993
 10
137.637
 20
918.6568
 10
138.441
 20
918.3271
 10
139.246
 20
918.4114
 10
140.051
 20
918.5665
 10
140.856
 20
918.7027391280118
 10
141.661
 20
918.7189788515057
 10
142.466
 20
918.7688578821352
 10
143.271
 20
918.846647764651
 10
144.076
 20
918.9466878574001
 10
144.881
 20
919.0637694723349
 10
145.685
 20
919.1933765382446
 10
146.49
 20
919.3317873879931
 10
147.295
 20
919.4760639578584
 10
148.1
 20
919.6239645685162
 10
148.905
 20
919.7738162939896
 10
149.71
 20
919.924376017823
 10
150.515
 20
920.0746989063273
 10
151.32
 20
920.2240219247853
 10
152.125
 20
920.3716619509601
 10
152.929
 20
920.5169106289605
 10
153.734
 20
920.6589452201245
 10
154.539
 20
920.7967093597808
 10
155.344
 20
920.9288085541152
 10
156.149
 20
921.0534220320214
 10
156.954
 20
921.1682652436806
 10
157.759
 20
921.2706350583703
 10
158.564
 20
921.357559324966
 10
159.369
 20
921.4260497829664
 10
160.174
 20
921.4734276495474
 10
160.978
 20
921.4976641299113
  0
LWPOLYLINE
  5
6D
100
AcDbEntity
  8
NAF_ABATIDO
  6
ByLayer
 62
  256
370
   25
100
AcDbPolyline
 90
  201
 70
    0
 43
0
 10
0
 20
954.0970923791328
 10
0.805
 20
954.0878906850958
 10
1.61
 20
954.0700363097103
 10
2.415
 20
954.0445309661636
 10
3.22
 20
954.0126640455549
 10
4.024
 20
953.9758232293831
 10
4.829
 20
953.9353255070484
 10
5.634
 20
953.8922995171695
 10
6.439
 20
953.8476297917621
 10
7.244
 20
953.8019550875156
 10
8.048999999999999
 20
953.7557025523261
 10
8.853999999999999
 20
953.7091376062408
 10
9.659000000000001
 20
953.6624139041978
 10
10.464
 20
953.6156144961908
 10
11.268
 20
953.5687813617076
 10
12.073
 20
953.5219343549954
 10
12.878
 20
953.4750822300662
 10
13.683
 20
953.4282290812087
 10
14.488
 20
953.3813763138554
 10
15.293
 20
953.334523686145
 10
16.098
 20
953.2876709187917
 10
16.903
 20
953.2408177699342
 10
17.708
 20
953.1939640757901
 10
18.513
 20
953.147109803009
 10
19.317
 20
953.1002550464984
 10
20.122
 20
953.0534000218181
 10
20.927
 20
953.0065450130452
 10
21.732
 20
952.9596903111374
 10
22.537
 20
952.9128361515574
 10
23.342
 20
952.8659826682892
 10
24.147
 20
952.819129874728
 10
24.952
 20
952.7722776636774
 10
25.757
 20
952.7254258431543
 10
26.561
 20
952.6785741568463
 10
27.366
 20
952.631722336323
 10
28.171
 20
952.5848673247757
 10
28.976
 20
952.5380042252491
 10
29.781
 20
952.491121839506
 10
30.586
 20
952.4441954890401
 10
31.391
 20
952.3971739255268
 10
32.196
 20
952.3499575530913
 10
33.001
 20
952.3023657220114
 10
33.805
 20
952.2540933095319
 10
34.61
 20
952.2046613785811
 10
35.415
 20
952.1533732287415
 10
36.22
 20
952.0992932409592
 10
37.025
 20
952.0412682389046
 10
37.83
 20
951.978005977741
 10
38.635
 20
951.9082114758186
 10
39.44
 20
951.8307622764796
 10
40.245
 20
951.744885396935
 10
41.049
 20
951.6502907173083
 10
41.854
 20
951.5472231760467
 10
42.659
 20
951.4364184634326
 10
43.464
 20
951.3189752614346
 10
44.269
 20
951.1961802993769
 10
45.074
 20
951.069331444958
 10
45.879
 20
950.9395972038553
 10
46.684
 20
950.8079331955
 10
47.489
 20
950.6750563919744
 10
48.294
 20
950.5414633462738
 10
49.098
 20
950.4074728234255
 10
49.903
 20
950.2732750673399
 10
50.708
 20
950.1389758689365
 10
51.513
 20
950.0046301411022
 10
52.318
 20
949.8702645179347
 10
53.123
 20
949.7358910709123
 10
53.928
 20
949.6015148932117
 10
54.733
 20
949.4671389635631
 10
55.538
 20
949.3327633446527
 10
56.342
 20
949.1983879600011
 10
57.147
 20
949.0640121339452
 10
57.952
 20
948.9296331796655
 10
58.757
 20
948.7952460297632
 10
59.562
 20
948.660839069515
 10
60.367
 20
948.5263866135922
 10
61.172
 20
948.3918358339203
 10
61.977
 20
948.2570857256038
 10
62.782
 20
948.1219551402814
 10
63.586
 20
947.9861392947223
 10
64.39100000000001
 20
947.8491569477929
 10
65.196
 20
947.7102944388396
 10
66.001
 20
947.568556524373
 10
66.806
 20
947.4226355138653
 10
67.611
 20
947.2709084601458
 10
68.416
 20
947.1114658792087
 10
69.221
 20
946.9421694197608
 10
70.026
 20
946.7607305107845
 10
70.83
 20
946.5648012678325
 10
71.63500000000001
 20
946.3520725845231
 10
72.44
 20
946.1203788094571
 10
73.245
 20
945.8678099459084
 10
74.05
 20
945.59282859132
 10
74.855
 20
945.2943816830291
 10
75.66
 20
944.9719904164591
 10
76.465
 20
944.6257964140199
 10
77.27
 20
944.2565573685847
 10
78.075
 20
943.8655883173213
 10
78.879
 20
943.4546470088607
 10
79.684
 20
943.0257842361552
 10
80.489
 20
942.5811724517421
 10
81.294
 20
942.1229265406729
 10
82.099
 20
941.6529298270636
 10
82.904
 20
941.1726819000745
 10
83.709
 20
940.6831941815308
 10
84.514
 20
940.1849694284956
 10
85.319
 20
939.6781051331436
 10
86.123
 20
939.162551271211
 10
86.928
 20
938.6384917878036
 10
87.733
 20
938.1068392924112
 10
88.538
 20
937.56967242832
 10
89.343
 20
937.0304846683979
 10
90.148
 20
936.494120201924
 10
90.953
 20
935.9663407225439
 10
91.758
 20
935.4530743369867
 10
92.563
 20
934.9594870387821
 10
93.367
 20
934.4890733028205
 10
94.172
 20
934.0430032704031
 10
94.977
 20
933.6198978456764
 10
95.782
 20
933.2161063604555
 10
96.587
 20
932.826408093686
 10
97.392
 20
932.4449194327424
 10
98.197
 20
932.0659363514525
 10
99.002
 20
931.684436424973
 10
99.807
 20
931.2961828039843
 10
100.612
 20
930.897457775925
 10
101.416
 20
930.484869619083
 10
102.221
 20
930.0553204781859
 10
103.026
 20
929.6064829871207
 10
103.831
 20
929.1375048610134
 10
104.636
 20
928.6495523058335
 10
105.441
 20
928.1457756179918
 10
106.246
 20
927.6305499694785
 10
107.051
 20
927.1082752756408
 10
107.856
 20
926.5823828656135
 10
108.66
 20
926.0552221603125
 10
109.465
 20
925.5291348649338
 10
110.27
 20
925.0083988172256
 10
111.075
 20
924.5011550415027
 10
111.88
 20
924.0202457667931
 10
112.685
 20
923.5822394417366
 10
113.49
 20
923.2046762344231
 10
114.295
 20
922.9023225082751
 10
115.1
 20
922.683760897072
 10
115.904
 20
922.5494286130812
 10
116.709
 20
922.4916538653431
 10
117.514
 20
922.4964770884021
 10
118.319
 20
922.54646763172
 10
119.124
 20
922.6235882766312
 10
119.929
 20
922.7113786215614
 10
120.734
 20
922.7961322590452
 10
121.539
 20
922.8671725926894
 10
122.344
 20
922.9165518465371
 10
123.148
 20
922.9385393809169
 10
123.953
 20
922.9291470557924
 10
124.758
 20
922.8857973217846
 10
125.563
 20
922.8071401312799
 10
126.368
 20
922.6929411911544
 10
127.173
 20
922.5440276552588
 10
127.978
 20
922.3621643793842
 10
128.783
 20
922.150018573793
 10
129.588
 20
921.9109969235953
 10
130.393
 20
921.6491360582208
 10
131.197
 20
921.3690293661994
 10
132.002
 20
921.0758111405792
 10
132.807
 20
920.5806
 10
133.612
 20
920.2952
 10
134.417
 20
919.9255000000001
 10
135.222
 20
919.4841
 10
136.027
 20
919.0412
 10
136.832
 20
918.5993
 10
137.637
 20
918.1568
 10
138.441
 20
917.8271
 10
139.246
 20
917.9114
 10
140.051
 20
918.0665
 10
140.856
 20
918.222
 10
141.661
 20
918.3776
 10
142.466
 20
918.5321
 10
143.271
 20
918.6876999999999
 10
144.076
 20
918.8432
 10
144.881
 20
918.9986
 10
145.685
 20
919.1534
 10
146.49
 20
919.3089
 10
147.295
 20
919.4641
 10
148.1
 20
919.6191
 10
148.905
 20
919.7738162939896
 10
149.71
 20
919.924376017823
 10
150.515
 20
920.069285476832
 10
151.32
 20
920.2101268780754
 10
152.125
 20
920.3492051079352
 10
152.929
 20
920.4851507492601
 10
153.734
 20
920.6165527038486
 10
154.539
 20
920.7419169434086
 10
155.344
 20
920.8596496970774
 10
156.149
 20
920.9680600888568
 10
156.954
 20
921.0653961843294
 10
157.759
 20
921.1499027893443
 10
158.564
 20
921.2199016066357
 10
159.369
 20
921.2738855097462
 10
160.174
 20
921.3106158834728
 10
160.978
 20
921.3292105847161
  0
LWPOLYLINE
  5
6E
100
AcDbEntity
  8
NAF_CRITICO
  6
ByLayer
 62
  256
370
   25
100
AcDbPolyline
 90
    4
 70
    0
 43
0
 10
10
 20
963.2965490824266
 10
9.039999999999999
 20
964.4965490824267
 10
10.96
 20
964.4965490824267
 10
10
 20
963.2965490824266
  0
LWPOLYLINE
  5
6F
100
AcDbEntity
  8
NAF_CRITICO
  6
ByLayer
 62
  256
370
   25
100
AcDbPolyline
 90
    4
 70
    0
 43
0
 10
35
 20
962.6730840942945
 10
34.04
 20
963.8730840942945
 10
35.96
 20
963.8730840942945
 10
35
 20
962.6730840942945
  0
LWPOLYLINE
  5
70
100
AcDbEntity
  8
NAF_CRITICO
  6
ByLayer
 62
  256
370
   25
100
AcDbPolyline
 90
    4
 70
    0
 43
0
 10
60
 20
961.9515190884202
 10
59.04
 20
963.1515190884203
 10
60.96
 20
963.1515190884203
 10
60
 20
961.9515190884202
  0
LWPOLYLINE
  5
71
100
AcDbEntity
  8
NAF_CRITICO
  6
ByLayer
 62
  256
370
   25
100
AcDbPolyline
 90
    4
 70
    0
 43
0
 10
85
 20
949.8001351844689
 10
84.04000000000001
 20
951.0001351844689
 10
85.95999999999999
 20
951.0001351844689
 10
85
 20
949.8001351844689
  0
LWPOLYLINE
  5
72
100
AcDbEntity
  8
NAF_CRITICO
  6
ByLayer
 62
  256
370
   25
100
AcDbPolyline
 90
    4
 70
    0
 43
0
 10
110
 20
928.30206138056
 10
109.04
 20
929.50206138056
 10
110.96
 20
929.50206138056
 10
110
 20
928.30206138056
  0
LWPOLYLINE
  5
73
100
AcDbEntity
  8
NAF_CRITICO
  6
ByLayer
 62
  256
370
   25
100
AcDbPolyline
 90
    4
 70
    0
 43
0
 10
135
 20
919.8830299871971
 10
134.04
 20
921.0830299871972
 10
135.96
 20
921.0830299871972
 10
135
 20
919.8830299871971
  0
LWPOLYLINE
  5
74
100
AcDbEntity
  8
NAF_CRITICO
  6
ByLayer
 62
  256
370
   25
100
AcDbPolyline
 90
    4
 70
    0
 43
0
 10
160
 20
921.4631869678268
 10
159.04
 20
922.6631869678268
 10
160.96
 20
922.6631869678268
 10
160
 20
921.4631869678268
  0
LWPOLYLINE
  5
75
100
AcDbEntity
  8
NAF_ABATIDO
  6
ByLayer
 62
  256
370
   18
100
AcDbPolyline
 90
    4
 70
    0
 43
0
 10
22
 20
952.9440916592523
 10
21.28
 20
953.8440916592523
 10
22.72
 20
953.8440916592523
 10
22
 20
952.9440916592523
  0
LWPOLYLINE
  5
76
100
AcDbEntity
  8
NAF_ABATIDO
  6
ByLayer
 62
  256
370
   18
100
AcDbPolyline
 90
    4
 70
    0
 43
0
 10
47
 20
950.755772860203
 10
46.28
 20
951.655772860203
 10
47.72
 20
951.655772860203
 10
47
 20
950.755772860203
  0
LWPOLYLINE
  5
77
100
AcDbEntity
  8
NAF_ABATIDO
  6
ByLayer
 62
  256
370
   18
100
AcDbPolyline
 90
    4
 70
    0
 43
0
 10
72
 20
946.2470188852695
 10
71.28
 20
947.1470188852695
 10
72.72
 20
947.1470188852695
 10
72
 20
946.2470188852695
  0
LWPOLYLINE
  5
78
100
AcDbEntity
  8
NAF_ABATIDO
  6
ByLayer
 62
  256
370
   18
100
AcDbPolyline
 90
    4
 70
    0
 43
0
 10
97
 20
932.6306878241584
 10
96.28
 20
933.5306878241583
 10
97.72
 20
933.5306878241583
 10
97
 20
932.6306878241584
  0
LWPOLYLINE
  5
79
100
AcDbEntity
  8
NAF_ABATIDO
  6
ByLayer
 62
  256
370
   18
100
AcDbPolyline
 90
    4
 70
    0
 43
0
 10
122
 20
922.8954506498618
 10
121.28
 20
923.7954506498618
 10
122.72
 20
923.7954506498618
 10
122
 20
922.8954506498618
  0
LWPOLYLINE
  5
7A
100
AcDbEntity
  8
NAF_ABATIDO
  6
ByLayer
 62
  256
370
   18
100
AcDbPolyline
 90
    4
 70
    0
 43
0
 10
147
 20
919.4072254658386
 10
146.28
 20
920.3072254658385
 10
147.72
 20
920.3072254658385
 10
147
 20
919.4072254658386
  0
TEXT
  5
7B
100
AcDbEntity
  8
NAF_CRITICO
  6
ByLayer
 62
    5
370
   -1
100
AcDbText
 10
-2
 20
963.2974999621781
 30
0
 40
1.1
  1
NAF crítico
 50
0
 41
1
 51
0
  7
STANDARD
 71
    0
 72
    2
 11
-2
 21
963.2974999621781
 31
0
210
0
220
0
230
1
100
AcDbText
 73
    2
  0
TEXT
  5
7C
100
AcDbEntity
  8
NAF_ABATIDO
  6
ByLayer
 62
    4
370
   -1
100
AcDbText
 10
-2
 20
954.0970923791328
 30
0
 40
1.1
  1
NAF abatido
 50
0
 41
1
 51
0
  7
STANDARD
 71
    0
 72
    2
 11
-2
 21
954.0970923791328
 31
0
210
0
220
0
230
1
100
AcDbText
 73
    2
  0
CIRCLE
  5
7D
100
AcDbEntity
  8
AFLORAMIENTOS
  6
ByLayer
 62
  256
370
   35
100
AcDbCircle
 10
89.343
 20
947.7966
 40
1
  0
TEXT
  5
7E
100
AcDbEntity
  8
ETIQUETAS
  6
ByLayer
 62
    4
370
   -1
100
AcDbText
 10
90.843
 20
949.2966
 30
0
 40
1
  1
Aflora VI/V (s=89.3)
 50
0
 41
1
 51
0
  7
STANDARD
 71
    0
210
0
220
0
230
1
100
AcDbText
  0
CIRCLE
  5
7F
100
AcDbEntity
  8
AFLORAMIENTOS
  6
ByLayer
 62
  256
370
   35
100
AcDbCircle
 10
99.002
 20
938.1383
 40
1
  0
TEXT
  5
80
100
AcDbEntity
  8
ETIQUETAS
  6
ByLayer
 62
    4
370
   -1
100
AcDbText
 10
100.502
 20
939.6383
 30
0
 40
1
  1
Aflora V/IV (s=99.0)
 50
0
 41
1
 51
0
  7
STANDARD
 71
    0
210
0
220
0
230
1
100
AcDbText
  0
CIRCLE
  5
81
100
AcDbEntity
  8
AFLORAMIENTOS
  6
ByLayer
 62
  256
370
   35
100
AcDbCircle
 10
113.49
 20
925.4299999999999
 40
1
  0
TEXT
  5
82
100
AcDbEntity
  8
ETIQUETAS
  6
ByLayer
 62
    4
370
   -1
100
AcDbText
 10
114.99
 20
926.9299999999999
 30
0
 40
1
  1
Aflora IV/I (s=113.5)
 50
0
 41
1
 51
0
  7
STANDARD
 71
    0
210
0
220
0
230
1
100
AcDbText
  0
TEXT
  5
83
100
AcDbEntity
  8
ETIQUETAS
  6
ByLayer
 62
   32
370
   -1
100
AcDbText
 10
44.47117937219731
 20
961.9473349775784
 30
0
 40
3
  1
VI
 50
0
 41
1
 51
0
  7
STANDARD
 71
    0
 72
    1
 11
44.47117937219731
 21
961.9473349775784
 31
0
210
0
220
0
230
1
100
AcDbText
 73
    2
  0
TEXT
  5
84
100
AcDbEntity
  8
ETIQUETAS
  6
ByLayer
 62
   30
370
   -1
100
AcDbText
 10
49.30044534412955
 20
950.3677044534413
 30
0
 40
3
  1
V
 50
0
 41
1
 51
0
  7
STANDARD
 71
    0
 72
    1
 11
49.30044534412955
 21
950.3677044534413
 31
0
210
0
220
0
230
1
100
AcDbText
 73
    2
  0
TEXT
  5
85
100
AcDbEntity
  8
ETIQUETAS
  6
ByLayer
 62
    5
370
   -1
100
AcDbText
 10
56.54437455830389
 20
938.4007399293287
 30
0
 40
3
  1
IV
 50
0
 41
1
 51
0
  7
STANDARD
 71
    0
 72
    1
 11
56.54437455830389
 21
938.4007399293287
 31
0
210
0
220
0
230
1
100
AcDbText
 73
    2
  0
TEXT
  5
86
100
AcDbEntity
  8
ETIQUETAS
  6
ByLayer
 62
    1
370
   -1
100
AcDbText
 10
80.48920197044333
 20
930.3215527093595
 30
0
 40
3
  1
I
 50
0
 41
1
 51
0
  7
STANDARD
 71
    0
 72
    1
 11
80.48920197044333
 21
930.3215527093595
 31
0
210
0
220
0
230
1
100
AcDbText
 73
    2
  0
TEXT
  5
87
100
AcDbEntity
  8
TITULO
  6
ByLayer
 62
    7
370
   -1
100
AcDbText
 10
0
 20
907.8169
 30
0
 40
2.5
  1
SECCIÓN A-A' — CEMEX LA SUSANA — K4+500 vía Maceo-Susana
 50
0
 41
1
 51
0
  7
STANDARD
 71
    0
210
0
220
0
230
1
100
AcDbText
  0
TEXT
  5
88
100
AcDbEntity
  8
TITULO
  6
ByLayer
 62
    8
370
   -1
100
AcDbText
 10
0
 20
904.8169
 30
0
 40
1.2
  1
L = 160.98 m  |  s∈[0.0,161.0]  |  z∈[911.8,974.3] m s.n.m.  |  Sistema Dearman (1976)
 50
0
 41
1
 51
0
  7
STANDARD
 71
    0
210
0
220
0
230
1
100
AcDbText
  0
ENDSEC
  0
SECTION
  2
OBJECTS
  0
DICTIONARY
  5
C
330
0
100
AcDbDictionary
281
    1
  3
ACAD_GROUP
350
D
  0
DICTIONARY
  5
D
330
C
100
AcDbDictionary
281
    1
  0
PLOTSETTINGS
  5
89
100
AcDbPlotSettings
  6
1x1
 40
0
 41
0
 42
0
 43
0
  0
ENDSEC
  0
EOF
